<mxfile host="app.diagrams.net" agent="Mozilla/5.0 (Macintosh; Intel Mac OS X 10_15_7) AppleWebKit/537.36 (KHTML, like Gecko) Chrome/137.0.0.0 Safari/537.36" version="28.0.7">
  <diagram name="Page-1" id="7DSMkEoMC-NE01Yf9gfc">
    <mxGraphModel dx="631" dy="801" grid="1" gridSize="10" guides="1" tooltips="1" connect="1" arrows="1" fold="1" page="1" pageScale="1" pageWidth="512" pageHeight="197" math="0" shadow="0">
      <root>
        <mxCell id="0" />
        <mxCell id="1" parent="0" />
        <mxCell id="AkpmsK5XjDnflj3CIGK0-60" value="" style="rounded=1;whiteSpace=wrap;html=1;" parent="1" vertex="1">
          <mxGeometry x="20" y="-168.21" width="160" height="138.21" as="geometry" />
        </mxCell>
        <mxCell id="AkpmsK5XjDnflj3CIGK0-43" value="" style="shape=image;verticalLabelPosition=bottom;labelBackgroundColor=default;verticalAlign=top;aspect=fixed;imageAspect=0;image=data:image/png,iVBORw0KGgoAAAANSUhEUgAAAgAAAAIACAYAAAD0eNT6AAAABHNCSVQICAgIfAhkiAAAAAlwSFlzAAAOxAAADsQBlSsOGwAAABl0RVh0U29mdHdhcmUAd3d3Lmlua3NjYXBlLm9yZ5vuPBoAACAASURBVHic7N13mBVF1sfx772TZ2DIUXIWwYwgCmIAwYgJFAUVd81hfc3gBvMqxjXnXcW8JlSiEUEwi+JKlCwKkien+/7RjEoYZqa7+nb6fZ7nPuvC9Okjg3NOV1VXxRCRoGgNdAI6bv10AtoAdYEMIBdIBep7lWAAlQObt34KgHxgDfAjMB9YuPWzbOvXiv9lAp3/8OkCtMf67yMXyAGysf47yd/6yQM2bf3nlcACtv3+b0zqv0GSxLxOQESq1AE4AjgY6A+09TadSCsAvgZmAO8CHwPFnmYkleoAffj9v5UDgDTD9/gRmIn1/Z8KLDUcX0QiLgUYCDwNrAMS+vj2kwe8DZyO9UQpydUKuAr4DCgj+d//BcA4YC+3/0VFJNwOAO4FVuN9YdOn9p8twLPAYKwmTtxRDzgbeA9rOsbr73vl5zvgWqzpOBGRasWAY7GGFL3+AaaPuc9S4DKsOWYxoxnwD6x5eK+/v7v6lANvYTX0IiI7SANGAXPx/geWPu591mAVrQaIXe2B+4BCvP9+1vYzA6vBFxEB4DhgMd7/cNIneZ8NwF+w3s6QmmkMPI43c/umPx8APcz+8YhIkHTEWjDm9Q8jfbz7zMNapS5Vi2ONjq3B+++XyU8p1khGrrk/KhHxuwzgZqAI738I6eP9pwJ4BmiKbG9/4HO8/x65+VkFnGrqD0xE/KsL8BXe/9DRx3+fX4AjEbAWw16GtaeC19+XZH1ewXqjQURC6GT8v2JZH28/FVjDwqY3rAmSxkR3amw+sLfzP0IR8Yts4Cm8/+GiT3A+HwItiZ7+WFvuev3n7+WnELjA6R+kiHivAdb2sF7/UNEneJ9VwJ5Ex0loXcwfP/djLYAUkQBqCczB+x8k+gT3sx5rH/uwuxh/7eLnl8+rWIcYiUiA7I51UpzXP0D0Cf4nHziacIphbYzk9Z+xnz/vkeRXBXUaoIh9vYDJQMNk3TAtLY399t+fPfbYg06dOtGpcxfat29PdnY2DerXJys7m9TUVLZs3syWvDwKCgpYsWI5CxcuZNGChcybN4/PPvuUvLy8ZKVMSkoKdz/4CEcfNzRp96z04vhnuP7qK2xdW7d+E0pLiigq2GI4q10qA84CnkvmTV0WAx4Czk/yfVcDs7AO7qk81nc11smOBVgLdSuPBq4LNMLas6Mz0BXYF6vBT6bPgEO35uc6NQAi9vTCOha0vts36tq1K8cPPYH+h/SnT58DyclxdvhcWVkZX37xBdOnf8TEiRP5dPZsEomEoWx3Li0tnSefe4G+B/d39T7bc9IAHDL0z4y8+gGWL5jDvC/e58uP3uDH7z8jUVFhOMsdlGM1AePdvlGS3IZ1WI7bioCJwBTgI6yV9k41Bw4BDsNau9DIQMzqPIu1IZLr1ACI1J7rxb9Jk6YMP/VURowYwT777uvWbQBYsmQJL77wPM8/9xyLFi1y7T45derw/KtvskfP5K13c9oAnHntw9v82oa1q5g1aTwfvfkka1f9aCLFqoSlCbgCuNPle3yEVTRfxXqqd0sa1omPpwNDsTb6ckMC6I21MZKrtPJQpHZcLf5t27blnvvuY/7ChYy7807Xiz9A+/btuW7MWOZ8N5cXXnzJtXvm5+VxzhmnsnzpUlfiJ0ODJrtx1Khr+Ocr8/jLXRPo2KO3W7dKAf4NnOHWDZLgTGCcS7ErsDbU2Q8YADyJu8UfrC1938Laza8DcBfgxlxaDKv5c50aAJGac634N2/egscef4K5//uB88+/gKysLNO3qFY8HmfoCSfwyazZTHj7bXr0MH+Gya9r13L2iGFs2bzZeOxkisXj7HnQUYx9YiZX3DeJ1p1dGdUIchPQC3gUd0aZ/4s1Nz8Ma7dNL/wEXAm0Bf6JtZOhSf0Mx9spNQAiNeNK8U9NTeWSSy9jznffMXLUKFJT/XFo3MCBg5j16WeMu/NOcnPNLkxetnQJY6/+P6MxvbRH74H8/T+fM/LqB8ipa/z03yA2AY2wns5ND5HPBwYBp2At7POD9cB1WPs4TDEYt7nBWFVSAyBSPVeKf/fu3flk9qfcMW6c8SJrQmpqKhdfcilzvvuOgQMHGY09ccKbvPTcs0ZjeikeT+HQE8/nphfm0LOP8W3+g9QExLHm49sajFkB3IpVZKcZjGvSAqz1ASOATQbiJWWITA2AyK65UvzPOvtsPp75CT179jQZ1hXNm7fgzbfe4qabbzY6QnHz38aycP48Y/H8oH7jlvzlnrcZccW9pKQa3eY/KE3AFcAQg/EqD04aC5QYjOuWF7DWJXzhMM5cA7lUSw2ASNWMF//09HSefOppHn7kUbKzs02FdV0sFuPKq65m6rR3adykiZGYhYWFXHbBuZSUBOHnes3FYjGOOOVirrp/KrkNjJ786/cmoDNwg8F4n2AdmPOuwZjJsBg4CGsNhF2vGspll9QAiOyc8eJft25dXn/zTUacfrqpkEl3YN++vP/Bh7Rr185IvAXzfuCpxx6u/gsDqMs+/bj+qU9o1rqzybB+bQJiwGOAqdWrbwMDgZ8NxUu2EqyNj/5u49p5WCMJrlMDILKjfbF2+DNW/Bs0bMjb70zksMMONxXSM507d+bD6dPZc6+9jMR78J67+GnVSiOx/KZxi3Zc9+iHtOli5s9qq8omICmbxdTQn7FexzPhWeBEkrQbnstuBM7G2uGxJgqxmruafr0jagBEttULa09uY9v7Nm3ajPc/+JADerv2znjSNWvWnEmTJtO1a1fHsQoLC7nz1psNZOVPuQ2bcdWD79Kum9H9FVKwjp72w0hAPaxFeiY8jbV/QKmheH7wb+A4qt+nYBXWNsBfup1QJTUAIr8zPuzftGkzpkybRrdu3UyF9I2GjRox4e13aNnS+XH2b73xGp9/OttAVv6UU7cBV9w/xY0m4N943wRcgZktcv+LNZLg7r7U3piEdb7AXcDy7X5vAdZUQXfg02QmpQZAxKLib0ObNm148623qVevnqM4iUSCcbfcaCgrfwppE9AU+IuBOJ9jTWmUG4jlV2v4ffOg5kAXoDFWY3AjSXr174/UAIio+DvSo0cPHnn0Mcdxvvri81CPAkAom4DrsE7Sc+Jn4ASs+e+o+AXrdMJ1XiahBkCizviCvyZNmjJpypRIFP9KQ084gXPPO89xnMcfut9ANv6WU7cBV94/lfbde5kMm4K1eC7ZZ9g7ffqvwHryX+UwjtigBkCizJUFf1PffZfu3bubChkYt98xzvHGRh+8O40F834wlJF/Zdetz//dN9H0SEAQ3YN/d/cLPTUAElUa9jcsMzOTBx96mHjc/o+VRCLBE488ZDAr/3JpOiBIfgT+6nUSUaYGQKJIxd8lvQ44gDNGjnQUY9Jbb1KQn28oI3+LeBNwDdGa9/cdNQASNZrzd9nNt9xCvXr2/3gLCwuZNmWSwYz8zaU1AUFQecCPeEQNgESJ5vyToEmTplx8ySWOYrzz5uuGsgmGiK4J6AzMBoZ5nUhUqQGQqNCTfxJddNFFZOfk2L5++ocfsHHDeoMZ+V9ERwKygOextsuVJFMDIFGgJ/8ka9CwIaeOsP9aellpKVMnTTSYUTBEdCQgBXgCOM3rRKJGDYCEnRb8eeRP519ALBazff2sGR8bzCY4IrowMA48CezndSJRogZAwkzF30Pt2rVj3/3tD2d/NnuWwWyCJaJNQBbwOtbhQpIEagAkrDTn77F4LMYxQ0+wff0vP69m+dKl5hIKmIiuCWgN3OZ1ElGhBkDCSHP+fhCLMeSY40lJSbEd4tPZnxhMKHgiuibgPKCP10lEgRoACRsN+/tFAho3aUL3Hva3B/7q888MJhRMv00H7B6Z6fE48A+vk4gCNQASJir+PpLYeqx7rz4H2o6xeOECU+kEWk7dBlzz0Pv0OTIyC+WPBPbxOomwUwMgYaHi7zMJq/5zgIMGYOmSHw1lE3wZWTmce8OzjHn8Y/odezaNW7YnNS3D67TcdLHXCYRdqtcJiBig4u9Dia0dwD772V/Etn7dOjZs3ECD+g1MpRV4nXoeSKee9psqNyQSCbZsWMPKxXP5bNrLfDLpWcpKS5yGHQqcD5Q6z1B2RiMAEnQ9UfH3pfKKCgAaNW5Mbq79N7t+mPu9qZTEJbFYjNyGzeje63DOGvMoNz0/h9adHW/z3xA41EB6UgU1ABJkucAEVPx9qaw88ds/t+vQwXacxYsWm0hHkqhZ686MeWw6bbs6nsbvZyIf2Tk1ABJkVwDtTAVT8TcnkUhQkaj47f+3bdfedqzNmzZRXFRsIi1JooysOlx8+39Jz8hyEiZS7z8mmxoACaoYMNpUMBV/s8oqKrb5/40aN7Ydq7CwkC15BU5TEg80at6WQ0+6wEmIvUzlIjtSAyBB1R5oZSKQir95JaXl2/z/nDp1bMcqKiwgP18NQFDtd4SjVxebmspDdqQGQIKquYkgKv7uKC3ftgFwcjRwYWEBZWXllJaWOU1LkiQBFJTAmi2Q2nRP4im2XzhLA+x3j7JLeg1QgirPaQAVf/eUlG3bAGRm2p8HLim25v8Li4pJS9OPrEQCisugrAIqEtV/fVIkoDwBFRVQUg5/HACKx1PIqtOA/E1r7Uavg4H/3mVH+q9JgmoxUARk2rlYxd89iYoEZds1AEVFhbbjpWdYm90UFRaRW9f+SEKQJRKQX2I9VReXgl/qfk1UVJRTmLfBSQgVf5doCkCCKh+YYudCFX93FZWW7VCg8vPs/wzPysoGrBGAKMorhp82wvp8KApY8Qf4+cc5VJTbnr4pRQ2Aa9QASJDdDFRU+1V/oOLvvsLSHTduK8jPtx0vc2sDUF5a9tvuglFQVg6rN1mFvzzA/9rfffCCk8t/MZWH7EgNgATZF8Bfa/rFKv7uSySguGTHp71f19qe/yU722oAEhCZhYDFZfDL5m3n0oNo4y9L+eKdR5yEmGMqF9mRGgAJtIKiono33Xwz8fiu/yr36NGDD6dPV/F3WVFpKRU7eUpftnSJ7Zh/fIWwrCz8DUBhqVX8g/zUD1BcuIUXbzqJ0hL76z+Ar03lIztSAyCBVVhcfEssFr/6yquuZvZnn3PSySdTZ7v3zffYYw/uvPtuZnwyi/bt7e9GJzWTX7TzA2CWLbHfADRvsdtv/1xSEu5zYQpL4dctXmfh3K8r5/PUFf34+UfHD/DTTeQjO6e3ACSQCouLb4HYmMr/37NnT8Y/9zylpaUsX76cgoICWrZo4WgHOqmdsooKincyRP/r2rVs3rzJdtyWu7X+7Z8rgv5YvAuFpbA2oMU/kUiQv/EXflnyHXOnv8y374+nvMxxs7YO+MBAelIFNQASONsX/z9KS0ujY8eOyU5JgPzCnT/9f/PVF7ZjNmjYcJtNhCoqarXmMzBqU/yXfz+Tr6Y8ydLvppO3fjVlpaF9O+INIPxzPh5SAyCBUlRcfHuC2NVe5yHbqqiooKB45w3Ap7M+sR13t1Zttr1PCN8CqOmwf0lRPhPuO5e5H73kflLeSwD3e51E2KkBkMAoLC6+RcXfn7YUllRZnD+fPct23FZt2m3z/xOJgC+L305Nn/wL8zbw7NjB/LTwS/eT8ocp6A0A16kBkEDY1bC/eKsiUUF+FU//v65dyw/fz7Ude4+e2x4Gl0jEbMfym5o++RfmbeDZMUfy06Kv3E/KHyqAv3udRBSoARDfU/H3t035xVVu0PPOhDcoL7f/1N5z7/22+f/Vve4ZFDV98i/K38j464dEqfgDPAR85nUSUaAGQHxNc/7+VlxWVuXcP8A7b75uO3bjJs1o0XK3bX4tHg/+CECRnvx3ZRkw1uskokINgHhhADAU6IZ10tdPwIfAS1iv/gCa8/e7RAI25VW9ycuKZcv4+kv7bwD03HufHX4t6A1AUal1RG51Ilr8C4ATgM1eJxIVagAkmdoD/wH67eT3TgFuA/4G3Kdhf//bUlhMaXnVr+U9/fgjjvbu33vfXjv8WpCnAFT8d6kCGI12/ksqNQCSLL2AicCudubJBe4dcNhhZ0Jsx8c/8Y3isjK2FBZV+fsb1q/nlReesx0/NS2Ng/oftsOvp6Sm2I7ppaLarPaPXvEvB87CGgGUJApuOy1B0guYyq6L/28+fP/9fR5++CF3MxLbyisSrN+y6/3dn336CQoL7e8Bv/8BB1I3N3eHX89IT7cd0yuVxb+6sZCIFv8CYDgw3utEokgNgLitsvjXr81FN95wAxs3bnQnI7EtkYD1eQW73JFv7Zo1PPWYoxPgGHD4kTv8WgxISwvWoKWK/y7NB/oAr3qdSFSpARA32Sr+ABs3bOCtCRPMZySObMgroKSaI3nH3XoTeVvsb2qfmZlFn4P77/DrqampxGLBWQSo4l+t64HvvE4iytQAiFtsF/9KM2Z8bC4bcWxTfhGF1ZzG9/WXn/P6K86mcvsfegRZWdk7/Hp6RpqjuMmk4l8jdwA7fqMladQAiBscF3+An1f/bCYbcWxLYRF5Rbs+dKaoqIixV13haOV/LBbj5NNG7vT3MjIzbMdNpsISa7W/in+12gM3eZ1ElKkBENP2BSbjsPgD1M2t6zwbcSyvqJjNBdWfOHfL369nwbwfHN2rz0H9adt+56c5ZmdnOYqdDPnFsDav+q+L6A5/O3M5cLTXSUSVGgAxqRfwHtDQRLDdd9/dRBhxIK+omE35Vb/uV2nSWxN44dn/OL7fyaeN2umvp6amkJHu3ymABLC5ENblV/+1hXkbeOa6QaxaYH+TpJ0oB0ZirZVM5udeh3nHgCeAVg7jiA1qAMQUI8P+lWKxGMcdP9REKLGppsV/3g//Y8xVlzu+3x4996LHnnvv9PeysjIdx3dLRYW1te/GGrz16NKwf+V79F68SncbYH/Fp6U58Drg/yEeM2JY/85dgSZeJqIGQEwwWvwBjjv+eHr27GkqnNRSXmHNiv+qlSsYPWI4WzY72701Fosx+vxLq/z9nGx/rhUrKIHVm6zDfarjYvE/E+/eo18D3GMgzv5Y/w7B3OmpZpoDdwMrgNXAPKw/v0XADUC9ZCekBkCcMl78W7duzf0PPGAqnNRSXlExmwqqL/4bN6xn9IjhrPnF+WLNQwcOrvLpPyUeJyvHXyMApeXWKv9f86C8BmseXS7+9rdcNOMu/nCGhwMnAo9jPSGHzVFYBf9yYLftfq8j1hboP2Dti5A0agDECWML/io1adKUNya8RZMmTU2FlFqo6bD/5s2bGH36qSxetNDxPbOysjlnF0//dXPrEPfJ+/+lZdY8f02f+gHyNv7Cf649wo3ifzbeF3+wDu+51lCss7HOC/Hvgo/aOxt4k+qf8FsA72ONhiSFGgCxy+iCP4BmzZoz9d136d69u6mQUgs1HfbftGkjo4adxLffmDm3ZcSZ59B4Fw1fbm4dI/exK5GwVvev2QKrN1v/XFMbfl7CU1cews8/zjGZUuWT/7Mmgzr0JPCBoVgjsdYE+HPep3b+ATxFzc/dycJq6pKy5aUaALHD+LB/s2bNmTx1Kt26dTMVUmqhpsP+mzZt5MzhJzP3WzMFrX2HTpw47PQqfz8rK9Oz7X9Ly62iv3Kj9dRfVMMn/kpLv5vOE5f3Zf1Pi0ym5Zdh/+0lgHMB+wdAbOtorAeMFobiJVsG1nTG321c2wUYYTadnQvWxtriByr+IVPTYX/TxT8jM5MxN9xGalrVo72xWIwNG+0vMCyoQVNTleKy2hd9gEQiwacT7mfak9dQXmYjQNX8WvwrLcKayx5nKF4f4BusEYGphmImQyeskw33dRDjROAZM+lUTQ2A1IaKf8h4VfwBLrzsKtq067DLrykoKKSgwP5DZX5+ge1r7dj860revPfPLP5qmunQfi/+le4GDsVa9GZCU2AS1rbB/wBqMQHjidOBh7CONnciKa9AaQpAakrFP2RqM+dvuvgPOPxIBh8Tnn0eKsrL+OytB3nogr2jXPwBKrCe2JcajBnHWmT4LbDjMZH+0BXr5+N4nBd/gKRsg6oRAKkJFf+Q8WrOH6BV67ZcdtVYY/G8tujLqUx76hp+WeLKwXZBKv6V1gMnAzMAk+9vdsF66+g1YAzWccJeawRcDfwFSDcYNykHoagBkOqo+IeMl8P+DRo24uY77yc7J8dYTC8kEhUs+PQdpr90K6vmf+7WbYJY/Ct9ibUo8D+Yf6//RGAo1psCt229V7LtBlwB/Blw4zWV6S7E3IEaANkVFf+Q8bL4Z+fkcPOd99Oi5fb7oATHprUrmPPes3w1+Uk2rlnm5q2CXPwrPYu11e1dLsSOAydt/UzHGnr/L7DBhXtVSgcGY83zH4+10t8NCeDfLsXehhoAqYqKf8h4WfxT09L42y130qlzV2Mxk6GivIzVi79hyTfv8cOsN6wDfBwcd1xDYSj+le4GGgPXuXiP/ls/92MtGJwKfIi1s55TLYEBwGHACRjc92QXngWMnhRVFTUAsjMq/iHjZfGPx+NcPfZG9tnvAGMxk2HeJ28w98MXKS50etZNrZRhFf/nk3lTl40FGgDnu3yfDKypgcrVpb8As7HWCiwEFmDNredv/WzEGr7P2fppCnTAWmvQBes1vmR3rJ8BFyTrZv7YX1P8ZF9gGgY73SZNmjJ56lTt8OeR2mzve9appxjb4U9qrQAYBrzjdSIuiGFtimNnY5yoeB9rlMHZyVq1EOaTl6T2VPxDRsU/MDZgvTv/nteJuOhDrEODBqOHz+29hrWeIT+ZN1UDIJVU/ENGxT8wfgKOIEnzvh77DJiLtYhOU9CW+4FzAKPbRtaENgIS0ME+oVObOX+TB/tIrX2AdfqbK5sI+NRrwEBgpdeJeKwIa13EpVgbKCWdGgBx5UjfiZMna8GfR2rz5H/2acOMLviTGksAt2MVwtUe5+KFGcDewNteJ+KR+cCBwKNeJqEpgGjTsH/IaNg/ENZgzfc+itUIRFUh8CLW+ofDiE49ehZrCmS514loBCC6NOwfMhr2970E1s54PQjW6XZuSgD3AX2x1geE2SpgODAKyPM4F0ANQFRp2D9kNOzve3OwNqs5C1jrbSq+9CXW8b9nEr4/nzLgX0B34GWPc9mGXsWIHm3yEzJebvIj1dqA9e77Q1g7/En1GgG3Yq2MD/q0wHtYi/z+53UiO6MGIFo05x8ymvP3rTXAw8C9WDvOSe21Ay7HOnAny9tUam0m1iLPt7xOZFfUAESHin/IqPj70lKsov8Y1iI3ca4pcCFwGQZHLl1QAUwEbgRcOyLSJDUA0aDiHzIq/r5SiPU627NYa2uSvqFLRGQBx2AtohuMfzYS+h/wCvAM8KPHudSKGoDw05x/yGjO3xe2YG3i8yLwJtY+/pI8LYFTgVOwNlJKdjMwD+v7/hwB3sRJDUC46ck/ZPTk75l8YBbW3O4MrDPoSzzNSCrlYG2qczBwENbbFumG7/Ejv3/vJ+ODd/hNUAMQXnryDxk9+buiDOtpfhO/HxO7FljM78fILsT6ge/Jdq1SaxlAR34/1rcz1oLCBkBdfj/+tz7W+/iV3/cNW/93JdseIbyQJJ7Ql0xqAMJJT/4h4/GTfzlwNtYct4iEhBqA8FHxDxkVfxFxgxqAcFHxDxkVfxFxixqA8FDxDxkVfxFxkxqAcFDxDxkVfxFxmxqA4FPxDxkVfxFJBjUAwabiHzIq/iKSLGoAgkvFP2RU/EUkmdQABJOKf8io+ItIsqkBCB4V/5BR8RcRL6gBCBYV/5BR8RcRr6gBCA4V/5BR8RcRL6kBCAYV/5BR8RcRr6kB8D8V/5BR8RcRP1AD4G8q/iGj4i8ifqEGwL9U/ENGxV9E/EQNgD+p+IeMir+I+I0aAP9R8Q8ZFX8R8SM1AP6i4h8yKv4i4ldqAPxDxT9kVPxFxM/UAPiDin/IqPiLiN+pAfCein/IqPiLSBCoAfCWin/IqPiLSFCoAfCOin/IqPiLSJCoAfCGin/IqPiLSNCoAUg+Ff+QUfEXkSBSA5BcKv4ho+IvIkGlBiB5VPxDRsVfRIJMDUByqPiHjIq/iASdGgD3qfiHjIq/iISBGgB3qfiHjIq/iISFGgD3qPiHjIq/iISJGgB3qPiHjIq/iISNGgDzVPxDRsVfRMJIDYBZKv4ho+IvImGlBsAcFf+QUfEXkTBTA2CGin/IqPiLSNipAXBOxT9kVPxFJArUADij4h8yKv4iEhVqAOxT8Q8ZFX8RiRI1APao+IeMir+IRI0agNpT8Q8ZFX8RiSI1ALWj4h8yKv4iElVqAGpOxT9kVPxFJMrUANSMin/IqPiLSNSpAaiein/IqPiLiKgBqI6Kf8io+IuIWNQAVE3FP2RU/EVEfqcGYOdU/ENGxV9EZFtqAHak4h8yKv4iIjtSA7AtFf+QUfEXEdk5NQC/U/EPGRV/EZGqqQGwqPiHjIq/iMiuqQFQ8Q8dFX8RkepFvQFQ8Q8ZFX8RkZqJcgOg4h8yKv4iIjUX1QZAxT9kVPxFRGonig2Ain/IqPiLiNRe3OsEkkzFP2RqU/zPPm2YG8V/NCr+IhJAURoBUPEPmdoW/zlff2Xy9pXF/xmTQUVEkiUqDYCKf8io+IuIOBOFBkDFP2RU/EVEnAt7A6DiHzIq/iIiZoS5AVDxDxkVfxERc8LaAKj4h4yKv4iIWWFsAFT8Q0bFX0TEvLA1ACr+IaPiLyLijjA1ACr+IaPiLyLinrA0ACr+IaPiLyLirjA0ACr+IaPiLyLivqA3ACr+IaPiLyKSHEFuAFT8Q0bFX0QkeYLaAKj4h4yKv4hIcgWxAVDxDxkVfxGR5AtaA6DiHzIq/iIi3ghSA6DiHzIq/iIi3glKA6DiHzIq/iIi3gpCA9ALmArUNxWwWbPmTJ46lW7dupkKKbVQ0+K/adNGzhx+MnO/nWPy9uXAWcB4k0FFRILG7w1Ad+Bj9OQfGnryFxHxBz83ALsBM4G2pgKq+HtLxV9ExD/iXidQhXrARFT8Q0PFX0TEX1K9TmAnGKvKzgAAIABJREFUsrGK/56mAmrO31ua8xcR8R8/jgA8APQ1FaxJk6ZMnDxZxd8jtXnyHz1iuBvFfzQq/iIiO/DbGoBhwEumgmnY31sa9hcR8S8/NQAdga+AXBPBVPy9peIvIuJvfpkCSAOeQ8U/FFT8RUT8zy+LAK8HepsIpAV/3tKCPxGRYPDDFEAH4Hsg02kgPfl7S0/+IiLB4YcRgHswUPwbN2nC1Hff1ZO/R/TkLyISLF6vARgIHOc0SHZ2Nv/976sq/h7Rq34iIsHj5RRAKtbQfxcnQdLT03n19dc54oiBZrKSWtGTv4hIMHk5AjAch8Uf4IEHH1Lx94iKv4hIcHnZAFzhNMDIUaMYOWqUiVykljTsLyISbF5NAQzB2u/fto4dOzLr08+oW7euoZSkprTaX0Qk+Lx6C+BKJxenpKQw/rnnVfw9oGF/EZFw8GIKoCdwmJMA5557Hnvvs4+hdKSmVPxFRMLDiymAfwLX2L24YaNGfPfdXBo2amQwJamOhv1FRMIl2VMAMeBUJwFuuOFGFf8k05O/iEj4JHsE4GDgY7sXt2zZkh/mLyA9Pd1gSrIrevIXEQmnZK8BOM3JxZdceqmKfxKp+IuIhFeyRwCWA63tXFivXj0WLFpMbq6RE4OlGhr2FxEJt2SOAHTAZvEHGH7qqSr+SaJNfkREwi+ZDcAhTi4eNmy4qTxkFzTsLyISDclsAPrbvbBVq1Yc2LevyVxkJ1T8RUSiI5mvAfaze+HQoScQj3t9cnG4ac5fRCRaklVV6wEd7V7cf8AAc5nIDjTnLyISPclqADrbvTAWi3GQhv9do2F/EZFoStYUgO0GYI899tDOfy7RsL+ISHT5fgSg5557msxDttKwv4hItPm+AejUqZPJPAQN+4uISPIagOZ2L+zUyXbvIDuh4i8iIpC8NQB17F7Yrl07g2lEm+b8RUSkUrJGAOravTC3Xj2TeUSW5vxFROSPktUA2B4BqFPH9qWylYb9RURke/5vAHJyTOYROSr+IiKyM8ncCtieWLJPLA4Pj+f8AYqBZaaDioiIc8kaAci3fWG+7UsjzeM5/0rZwETgMDeCi4iIfclqAPJsX5hn+9LI8njYf3vZwFuoCRAR8RX/NwBbtpjMI/RqM+w/athJbhf/StnABOCQZNxMRESq5/spgOXLl5vMI9R8MuxflRw0HSAi4hvJagB+tnvhwoULTOYRWj598t+eRgJERHwiWQ3AIrsXLl682GQeoeTzJ//taSRARMQHfN8AzJ0712QeoROQJ//taSRARMRjvm8Avp0zhy1aCLhTAXvy355GAkREPOT7BqCsrIzZs2eZzCUUfPaqn116RVBExCPJagDWAKvsXvzx9I8NphJ8Xg77x+NxGjRsaCwemg4QEfFEshoAANtV/M03XjeZR6B5Oewfj8e54rq/86/HnqV5i92MxUXTASIiSZfMBmC63QsXLFjAN19/bTKXQPJy2L+y+B8x+BiaNmvOuPsfM90EaDpARCSJAtEAALz00kum8ggkvxT/SmoCRESCLZlH7cWw1gI0tnNx8+YtmLdgARkZGWazCgAvT/WLx+NcOfYGDh901E5//+fVq7jq0vNY8/NqY/fE2jnyaOAjk0FFROR3KUm+X3dgbzsX5uXl0aZNW/bZZx/DKflbbef8v5vzjbF7//bkf+TRVX5Nnbq5HHzIYcye8ZHJcxvSgWHAbGCJqaAiIvK7ZI4AAAwCpti9uHPnznzz7XfE48mcufCO34b9q5KWlkqMMkYOO4GVZs9uKACOBd43GVRERJK7BgCsH+Rr7F68cOFC3ng9Gm8EeP2q35Vjb6hx8d9tt2a0btOG8S+/zm6tWhvLA70iKCLimmQ3AGXAK04CXHvN1RQUFBhKx5/88KpfVXP+f1RZ/FNSrJmkVm3a8MLrE2jVpo2xfNArgiIirkj2GgCAjcA5di/evHkz6elp9O8fzofC2i74Mz3nf+XYG3Y5519p++JfqW5uLkcMGsK0yZPYsnmzqdTSgJOBmcAyU0FFRKIs2WsAKn0O7G/34qysLL76Zg7t2rUzl5EP+Hm1/x9VVfz/aOXy5Zx+8lBWrVxhLEestwMGAZ+YDCoiEkVeraYb5+TiwsJCzjpzFGVlZaby8dzmgvAUf7CmA5777xum1wTkAK8BLU0GFRGJIi+mAADmASMA25vKr1q5krKyMg49LPhTwxvzC8krKq7267x61a9STYt/pdx69TjyqKOZNmUSmzdtcppqpTpAfazFgSIiYpNXUwAAFwIPOgkQj8d58623OOKIgYZSSq5EIsGGvEIKS0qr/dqgPPnvjAvTASVYG0rpnGgREZu8bACygIWAo71k69Wrx9R332PPPfc0k1WSlFckWJ9XQElp9dMYQS7+lVxoAo4CJpkKJiISNV7uqFMIXOM0yKZNmzj+2GNZtiw4i8OLS8tYszEvMsUfXFkTYHRxgYhI1Hi9pd7zwAynQX7+eTXHHn0UP5vdj964RAI25hfx6+Z8KhIV1X79xg3rQ1H8KxluAqpfMSkiIlXyugFIAJcC5U4DLVy4kEMPOYRFixY5z8oFxaVlrN20hfwaLPYDWLVyBcOPPyY0xb+SwSZgvol8RESiyusGAOBr4DETgZYuXcphAwbw1ZdfmghnRHlFgvVbCvh1cz6l5dU/9QPM/+EHhh13NIsXLTSWhx+KfyUDTcDPwBcGUxIRiRw/NAAA1wJGHt3Xrl3DoIFH8Nz48SbC2VaRqGBTQRG/bNxSo1X+lSa9NYFTTziGXwxOZ/ip+Fdy2AT8EwOjRiIiUeblWwDb2w9rh7d0UwFHnH469/3rfurUqWMqZLXKKirILywhv7iERCJR4+tKSkq4/aZ/8J8nHzeaTzwe58ox/+BwF97zN+GnVSsZcdLxNT5FMBaLvZ9IJI7EOldCRERs8ssIAMCXwBiTAZ9/7jkOOrAP06d/ZDLsDioSCQqKS1m3uYBfNmwhr6i4VsX/6y8/58QhA90p/mNv8G3xB2i5Wyuef/VNuvfoWe3XHnzIocz66ruViUQNVlCKiMgu+WkEAKx83gGGmA48bPhw/nn7HbRo0cJIvIpEBcUl5RSWlFJUWlargl9p3a+/Mu6WG3n15RdtXb8rfhz235WioiKeeepx/vPE4ztMf7Tv0JE/X3gxJw0/rTLHJzq2aHxeLBZTIyAiYpPfGgCARlinvnU1HbhO3bqcf/4FXHLpJTRt2qzG1yUqEpRWVFBWXkFJWRnFpWWU1XBB385s3LCe/zxpFbvNm41tkfuboBX/P0okEixaMJ+VK1YQj8dp36EjbXZ+6JOaABERB/zYAAC0w2oCXDn0JTMzk+EjzuCc886jU6fOxGIxYsSwnsETVFQkSCSsp/zSigoSFWaezlcsW8YzTz/Bi+OfobCgwEjM7QW5+NugJkBExCa/NgAAewEfAfVcvck++3LsCSdx9HFDadK0qfH469etY+KEN5jw+qt8/eUXxof6/yhixb+SmgARERv83AAADAAmAxlu3ygej9Olazd69z2IPgcdzF777EvTZs1rHWftmjV8N+drZs2cwaefzGTe/76nosL92hTR4l9JTYCISC35vQEAOA54BYOvB9ZUdk4O7Tt0pF37DtRv2JA6OXWom1uX1NQ0ysrL2LJpM/kF+WzasIElPy5m6ZIfyduS/APq0tLSufr6G+l/WPWnIoaw+FdSEyAiUgtBaADAeivgdZIwEhA0WVnZXH/zHex/wIHVfm2Ii38lNQEiIjUUlAYA1ATsoEHDhtw87n46delW7ddGoPhXUhMgIlIDQWoAwMPpAL9p1botN995Py1a7lbt10ao+FfavgmIAX2BQUBbrG2EFwKTAHOnLYmIBEjQGgCA44GXiXATcOjAwVx25ViysrOr/doIFv9KlU3AfsBDwP5VfN1U4CIMnUUhIhIUqV4nYMObwDAi2ARkZGZy0V+u5sijj6/R16enp9GyZdMoFn+AP11/4y2tgUOAzF183SDgU+AEYHoyEhMR8YMgjgBUitRIQPsOnRhzw220adehRl+fmZlBi+ZNiKf46biH5Pnh+7mccuwQioqKanpJPnA01t4TIiKhF+QGACKwMDAzM4uTTxvJqSPPJi2tZr1OdnYWzZo3Jh4L+rfXvjNOOYHZM2fU9rIC4FjgffMZiYj4SxgqRGibgN59+3Hx/11bqw2J6tWrS+NG9SHCxX/h/HkMObSf3cvVBIhIJARxDcD2JgHDCdF0QI899+ascy+i51771viaeDxO4yYNqFsnx8XMgmFW7Z/8/ygbmICmA0Qk5MLQAEAIFgbGYjF69+3HsNPPYo+ee9Xq2oyMdJo1b0xaali+nc78snp19V+0azlYx1KrCRCR0ApTxQhkE5CZmUW/Qw/n5FNH0a5Dx1pdG4/FqN8gl/oNcomFYjbHjPQMI99+NQEiEmphagAgIE1Aaloa+x9wIAOOOJIDDz6EzMysWsfIycmiUaOGpKVF8hW/XaptI7ULagJEJLTC+tjou1cEmzRtxp5778de++5P336HUjc311acjMwMGjWsR1bWrl5tj7YN69fTd5+elJaWmAqpVwRFJHTC2gCAh01Ao8ZNaLlba1q1acsePfem59770LxF9Vv27kpmZgYNGuSSnV370YIoumHsdTz79BMmQ6oJEJFQCXMDAC41AQOHHEPTZs3JzMwiKzuHtLQ06tWvT/MWu9Fyt9ZkZJp5Ok9JSaFOTjZ169UhIz3NSMyoyNuyhZOPHcKiBfNNhlUTICKhEfYGAFxoAtq068Ad9z1Kg4YNTYX8TTwlTk5OFnXrZJOZmUkswu/zO7VyxQpOP+l4Vq1cYTKsmgARCYWoVBfjmwW1adeeux98gtzcBiRI2I6TlppKRmY6WZkZZGZlkq4nfaN+WrWSEScdz8rly02G1WZBIhJ4UWkAwIUmoEPHToz/7+s0bNiY0tIySktLKa+ooKIiQUVFBRUVFSSAlHicWCxGLB4jNZ5CaloKaalppKWn6gk/CdQEiIjsKGrVx6Um4A2aNmtmKqS4QE2AiMi2otYAgJqAyFITICLyuyg2AKAmILLUBIiIWKLaAICagMhSEyAiEu0GANQERJaaABGJuqg3AKAmILLUBIhIlKkBsKgJiCg1ASISVWoAfqcmIKLUBIhIFKkB2JaagIhSEyAiUaMGYEdqAiJKTYCIRIkagJ1TExBRagJEJCrUAFRNTUBEqQkQkShQA7BragIiSk2AiISdGoDqqQmIKDUBIhJmagBqRk1ARKkJEJGwUgNQc8cDLwPppgJ26tKV8a+8TuMmTUyFFBesXL6c008eyqqVK0yGzQeOBj7aye/VA+Jb/7kM2GLyxiIioAagttQERJRLTUABsACr4NcHGuzia8uBzVjNwGrgV2AtsBz4EVi89X9/MpmgiISXGoDaUxMQUS41AaZtBL7Z+vka+AyY52lGIuJLagDsURMQUQFpAra3BpgBTAfeBb73Nh0R8QM1APapCYiob778gtNOPJ7S0hKvU7FrKfAO8DbWQsTA/ouIiH1qAJzR2wERsXnzJt6bMplJb09g+ocfUFZa6nVKpmwE3gJeASZhLToUkQhQA+CcRgJCqqKigpnTP+L5Z/7Nh++9G+Qn/ppaCTwFPL71n0UkxNQAmKEmIEQ2bdrIqy++wPPP/JulS370Oh0vlGFNDzwETPM4FxFxiRoAc9QEBNzqn1bx2IMP8MoL4ykqKvI6Hb/4Grgd+C/Wq4giEhJqAMxSExBAK5Yt45EH7uO1l1+KwjC/XT8CtwD/QY2ASCioATBPTUBArPnlF+654zZee+Ulysu09q2G5gF/BV4FEh7nIiIOqAFwh5oAHysqKuKpRx/mkQfuoyA/3+t0gupz4DJglteJiIg9agDcoybAh9564zXG3XITP63SIncDEsAzwLXAzx7nIiK1pAbAXWoCfGLVyhX89Zormf6BDuBzwWbgOuBhNC0gEhhqANynzYI8lEgkeOm5Z7ntxr+Tn5fndTphNxM4B5jvdSIiUj01AMmhkQAPrFy+nP+7+Hy++uJzr1OplfoNfj8UsLSkhPxgrVMowJoSeACNBoj4mhqA5FETkEST3prAmKsuZ8vmzV6n8ptmzZrTvXt3unbtSpu2bWjVqjWtWrWiUePGNGhQn/r1G5CWlrbTa0tLS9mwYT1r1/7KunW/smrlKpYuXcKSJUtYtGgR//v+ezZt2pTkf6NdehsYjXVksYj4kBqA5FIT4LKioiJu/ttYXhz/jKd5NGzUiD69+9DrgF70OuAA9t1nXxo0bOja/RKJBEuXLmXON9/w2WefMXPmDL768kvKvH298SdgJNaBQyLiM2oAkk9NgEtWLFvG+aNHMv+HH5J+75SUFPoceCCDBg3i8MOPYJ999yUejyc9jz/Kz89n5swZTHznHSZNnMjy5cu9SKMcuAa4y4ubi0jV1AB4Q02AYZ/N+oSL/nw2G9avT9o94/E4AwYcygknnshxxx9H06b+XpT57bff8vJLL/HySy+yYsWKZN/+eeDPWGsERMQH1AB4R02AIS899yz/GHNt0rbxbdeuHaPOPJMzRo6idevWSbmnSYlEghkff8yTTz7BG6+/TnFxcbJu/RVwDLA6WTcUkaqpAfCWmgAHEokEt97wN55+7JGk3O/QQw/jwosv5qijjvJ8eN+UX9eu5d//fpoHH3iQn39OSl1eChwFJH+eRkS2oQbAe2oCbCgvL+e6K/7Cay+/6Op94vE4Q084gWuvG0PPnj1dvZeXiouLeW78eO65+y4WLVrk9u3WY/29n+H2jUSkamoA/EFNQC2UlJRw+YXnMWXi267dIxaLccKJJzL2+r/SvXt31+7jN2VlZYx/9lluufkmVq50dbvkAmAoMM3Nm4hI1dQA+IeagBooLCjggtFnMmP6h67do3efPtxxxzgO6N3btXv4XVFREY88/BC33Xorm93bS6EIOAmY6NYNRKRqagD8RU3ALhQXF/PnkSP4ZMZ0V+I3bdqMO8aNY9jw4cRi+k8D4OefVzN2zBheeP55EglXNvYrAU4BJrgRXESqpp9y/nMU8Bo6O2AbZaWlXPins3l/2hTjsWOxGKeNGMG4cXfSsFEj4/HD4JOZMzn/vHNZuHChG+FLsJrfyW4EF5GdC8dS5nCZCAzH+qFoxI+LFzFq+En8ujaYu7KWl5fzf5dc4Erxb926NRMnT+bJp55W8d+FvgcdxKxPP+Oiiy52Y3QkHXgF6GM6sIhUTSMA/qXpgK3GXHk5Lz8/3njc00aM4J5776NevXrGY4fZtGlT+dPoc1iz5hfTodcD/YHvTQcWkR1pBMC/3gSGYXAkYNGC+ZxxygmBGgl47KH7jRf/rKwsHnv8CZ56+t8q/jYMHDiIz7/8gsMPP8J06IZYhwg1NR1YRHaU4nUCskvzsXZPOxlINRFw/bp1vD9tCkcefSw5deqYCOmaD96dxtgrLze6+Kx169a8OeEtBg8ZYixmFOXk1OG0ESOAGDM+/thk6PrAocBzQKnJwCKyLTUA/rcQ+A44EUPfrw0b1vPRB+8x+Ohjyc7JMRHSuO+/+5ZzRp5GSYm57X379e/PlKnT6NCxo7GYURaLxeh/yCF06dKVKVMmU1pqrF63BDoCr5oKKCI70hqA4IjMmoAN69dz3KDDWP3TKmMxTz/jDB56+BHS04398ckffDp7NieddCLrfv3VZNjLgXtNBhSR32kNQHBEYk1AIpHgqssuMlr8r77mWh5/4kkVfxf17tOHDz78iPbt25sMewdwkMmAIvI7NQDBEvom4NEH/8WH771rLN5NN9/MDTfeqI19kqBz586898GHdO3a1VTINKxRLy0KFHGBfioGUyinA7747FNOP3ko5WVljmPFYjHuvPtuLrzwIgOZSW2sWfMLRw0ezPffG3ub7y3gOFPBRMSiBiC4QtUE5OflcfTh/Vm5YoWReLffcQeXXvYXI7Gk9n5du5aBRxzOvHnzTIU8D3jMVDAR0RRAkIVqOuCOW240Vvz/ccMNKv4ea9ykCW9PnETbtm1Nhbwb6GwqmIhoBCAMAj8SMHvmDEYOO9HI+/4XXngRd91zj4GsxIRFixZx2IABrF27xkS4j4FDAFdOJRKJGjUA4RDYA4QKCws5+vD+LF+61HGsIUOO4pVXXyUlRdtb+MmXX3zBoIFHUFBQYCLcucDjJgKJRJ2mAMIhsAcIPXD3nUaK/9777MOzzz2n4u9D++2/Pw89/IipNzFuB5qbCCQSdfppGR7zMbxj4Pp16/jw/Xdd2zFw2dIlXHnphZSXlzuK06hxYyZPmUoTn21oJL/r0aMHBQWFzJr1idNQWUALrBEvEXFAIwDh8iZwAlBsKuCiBfMZceJxrPnF+Mlv3PL36x1v9RuPx3nq6adp06aNoazELTfedJOpA4RGAAebCCQSZWoAwicQ0wHTP3if96dNdRxnzNixDBp0pIGMxG0pKSk8+fRTNGvmeAQ/BoxDa5hEHNF/QOHl27cDKioqOOaIASyY94OjOL379OHd994nNdXIQYmSJJMnT+LEoUNNvPUxAnjBQEoikaQRgPDy7T4Bk96e4Lj4161bl6ee/reKfwANHjyEP597rolQN2LomGyRKFIDEG6+awLKy8v5113jHOdxw0030aFDB8dxxBu33vZPEwcHdQJGGkhHJJLUAISfrxYGvv3m6yxeuMDR/XsdcADnnnueoxjirZycHO67/34Tof6GwWkukSjRa4DRsBDDrwhu2LCejz54r1avCCYSCS674Fw2rF9n+75paWm8MeEtmrm8QZG4r2PHjixatJDv5851EqY+8CPwjZmsRKJDIwDR4fl0wPQP3nf89H/eeefTvXt3RzHEP26/4w7q1q3rNMwVaEGzSK2pAYgWT6cDnn78UUf3qt+gAdeNGeMohvhLs2bNufKqq5yG6QEMMpCOSKSoAYgeT/YJWLxoITOnf+joPtf/9a80bNTIUQzxn0suvczERk7/ZyIXkShRAxBNSZ8OeOapJxy9992qVSv+9Kc/275e/CsrK4ux1//VaZiBQFcD6YhEhhqA6EradEBxcTFvvfaqo9hXX3MtGRnGDjsUnzn9jDPo3LmzkxAxYLShdEQiQQ1AtCVlOuD9qVPYvHmT7Zi77bYbZ551loHsxK9SUlK4+pprnYY5E0gzkI5IJKgBENenA17/70uO4l140UWkp+tV77AbfuqptGrVykmIZsAxhtIRCT01AAIuTgfM++F/TP/wA9txsrOzOftsjexGQVpaGhdedJHTMCNM5CISBXp3Vv7I+AFCWVlZFBYW2r7+vPPP5977/mUqHfG5jRs30qlDe/Lz8+2GKACaArYDiESFRgDkj4yPBDgp/oCe/iOmfv36nDxsmJMQ2WgaQKRG1ADI9owvDLRrn333Za+99/Y6DUmys0c7bvpONpGHSNjpKE3ZmcqFgUanA2rrzDPP8urWSbN+3To+/vhjZsyYwbwffmDhwgVs2ryZTRs3EovFyK1Xj0YNG9KlS1d2796dg/sdzMEH9zOxfa5v9T6gN1277c58+0dGD8J6G6DUXFYi4aM1ALIrxtcE1FRKSgpLli2jSZOmyb6160pKSnj9tdd4bvx43n//PcrLy2t1fXp6OoOHDGHkqDM56qijiMfDN5B30y23cOuNNzgJMQD4yEw2IuGkBkCq40kTcMghA5g8dWoyb+m60tJSHn/8Me656y5WrlxpJGbXrl25+pprOW3ECGKx8Pzn/O338+i9755OQvwTuM5QOiKhFL5HBzHN+D4BNTH0xBOSeTvXfTx9Or177c8Vl19urPgDzJ8/n3NGn82hAw7h22+/NRbXax06tqfnXo7WfxxpKheRsFIDIDWR9CZg8OAhybqVq8rKyvjH3//O4CMH8cMPtue0q/Xp7Nn0P/ggHnroQdfukUypKXEGDj7KSYi9gHqG0hEJJTUAUlNJawI6d+5Mu3bt3L6N6/Ly8jhx6FBu/+dtVFRUuH6/4uJirrj8cv50zmhKS4O9/i01nkK/AYc6CREH+hhKRySU1ABIbSSlCRg4MPhHu2/cuJEhg49k2rTkr2N4bvx4hp18MsXFxrZzSLqUeIw9eu7p9PjnvqbyEQkjNQBSW643AQf36+dW6KQoLCzk5JNO5IvPP/csh8mTJ3H2WWcmZeTBDbFYjNTUFA7qd4iTMGoARHZBDYDY4WoT0LtPsEduzz/vXGbOmOF1Grz+2mv87a9/9ToN2+KxGPv1OsBJCO0iJbILagDELleagNatW9OyZUuTIZPqiccf5+WXnJ1+aNLdd93J5MmTvE7Dllgsxr7OGoDGQAtD6YiEjhoAccJ4E7DvfvuZCpV0K1eu5NprrvY6jW0kEgkuPP98Nm/e7HUqtRaPxei6e3eyc3KchOlpKh+RsFEDIE4ZbQJ69Ajuz+urrrzCySl2rlm9ejW33Hyz12nUWowYKSkpdO3W3UmYHqbyEQkbNQBigrFTBHv0CObP62/nzOHNN97wOo0qPfrIw/z0009ep1ErsVgCgC7dujkJ08lIMiIhpAZATDFyimBXZz/sPXP77f8kkUh4nUaViouLue/ee71Oo5asrY27dNvdSZD2RlIRCSE1AGLSm8AouxfHYjHatm1rMJ3kWLt2DW9NmOB1GtUaP/5ZSko8P+W55rYebdCxk6OH+HYGMhEJJTUAYtp3di9s3LgJ2dnZJnNJipdeesnIznsdO3XmbzffxrQZs/l+yUq+W7ycd96bzlVj/0rzFs7fjFi/bh1TJk92HCfZdmvdxsnlbdGhZyI7pQZATGts98LWbVqbzCNppkxyVlTj8ThXXDuWie9PZ9ToP9G+Q0cyMjLIysqi6+67c95Fl/LuzE8ZNfpPjnOdNGmi4xjJ1nK3Vk6OPM5CZwKI7JQaADGtid0LmzZpajKPpCgpKeGTT2Y6inHLnfdwwaV/ISU1tcqvyczM5G8338alV1wWsbXtAAAUY0lEQVTl6F4ffvCBo+u9kJGRQaPGtvtKcNCUioSZGgAxzfYP24aNGprMIynmzZtHQUGB7etPHn4ap5w6osZff8n/XUXfg/vbvt+SJUvYuGGD7eu90qChozMBHF0sElZqAMS0XLsXNmwQvAZg4YIFtq9NSU3l8muuq9U1sViMK8dcb/ueAAsc5OyV+g0aOLlcDYDITqgBENPS7V5Yp25dk3kkxYoVy21fe0CfA2nWvPY71e659z60bWf/7bYVK1bYvtYrDZw1h7abUpEwUwMgptluANLT00zmkRRbtuTZvrbnnvbPqum5l/1rg7gtcJazt0Ns/50UCTM1AGJaht0L09OD93O6sLDQ9rW59e0vTq/f0P4TcUGh/TULXsnIsP3XChz8nRQJMzUAYprtx/i0tOCNAGRlZdm+1slivA3r1tm+NjsreHstpKerARAxTQ2AiAO5ufbXLXz7zdf2r51j/9rc3OBNiaemVf2KZA0Er7MUSQI1ACIOtHawS92Xn33KT6tW1vq6r7/8nBXLltm+b5s2jnbW80Qs5mgzP+0EKLITagBEHOjcpYvta8vLy7nrn7fW6pqKigruuOUm2/cEZzmLSHioARBxoFu3btSpU8f29W+++grP/efpGn/9XbfdwuezZ9m+X8eOHalfv77t60UkPNQAiDiQlpZG374HOYrxjzHXcPftt1JaWvVJfQX5+Yy58nIeffBfju414NBDHV0vIuGhBkDEocFHDXF0fSKR4KH77mFQ/748/tADzP/hB/K2bGHjxg3M/XYO/7prHIf17cXLz493nOuQo452HENEwsHR0loRgeHDhnPt1VdTUlL1E3xNrFi2jNtvvoHbb77BUGbbatykCYMGDXIltogEj0YARBxq2KgRxw8d6nUa1Ro5clQg91oQEXeoARAx4Nrrxjg5s951mZmZXHrZpV6nISI+4t+fWCIB0r17d04+5RSv06jSRRdfQnMbBw+JSHipARAx5I5x46hXz/7+/m5p1aoV115Xu2OHRST81ACIGNKsWXPG3XmX12lsIx6P8+jjjzvaq0BEwkkNgIhBI0eNYuSoUV6n8ZtrrxvDYYcd7nUaIuJDagBEDHvgwYc44oiBXqfBsOHDGXv99V6nISI+pQZAxLD09HSee+EFDuzb17Mcjj32WB5/4klfv5kgIt7STwcRF+Tm5vL2OxM5+ujk77w3+pxzeOGll0lPT0/6vUUkONQAiLgkOzubV159jXF33ZWUDXgyMzMZd9ddPPjQw6SkpLh+PxEJNjUAIi6KxWJcfPElvPve++y5116u3eeQQwYw69PPuPjiS1y7h4iEixoAkSQ4oHdvPpk1m4cefoQOHToYi9uzZ0+ef+FFJk2ZQrdu3YzFFZHwUwMgkiQpKSmcPXo0c76by4svvcwxxxxja54+Ozub4aeeyoS33+bTz7/ghBNPJBaLuZCxiISZTgMUSbLU1FSOHzqU44cOJS8vjxkzPmbmjJnMn/cDCxcuZN269eTlbSEej1OnTl2aNGlMp86d6d59D/r170efPgeSmZnp9b+GiAScGgARD9WpU4fBg4cwePAQr1MRkYjRFICIiEgEqQEQERGJIDUAIiIiEaQGQEREJILUAIiIiESQGgAR8SXtbCDiLjUAIiIiEaQGQET8SbsbirhKDYCI+FI84XUGIuGmBkBE/EkjACKuUgMgIr6kA45E3KUGQER8Ka76L+IqNQBimu2/U3rik2384e9DSkqKk0hpjnMRCSE1AGJajt0LMzJ0xK38LuUPDUBGRoaTULb/ToqEmRoAMa2O3QuzsrJM5iEBF4//sQFw1Bza/jspEmZqAMS0unYvVAMgf5QS//3Hk8MRADUAIjuhBkBMs/3DNiNTUwDyuz+OAGQ6aw5tN6UiYaYGQEyz/cM2N1c/p+V38ViM+NZ1AI0aN3YSqpGRhERCRg2AmNbW7oUtWrQ0mYeEQGqqtfq/abNmTsJ0NpKMSMioARCTGgC2H9VatGhhMBUJg/St6wCaNmvuJEwbQPNLIttRAyAmdbF7YZ06dahbV1MAsq3KEYBmzZoTj9v+cRUHOprKSSQs1ACISbaHWlu21PC/7Ch9awOQmpZG4yZNnYSy3ZyKhJUaADHJ9g/ZTp00TSs7Sk2J/7ZDZOcuXZ2E2sNIQiIhogZATOpl98I9evQwmYeERCwWIyM1FYAu3bo5CdXfSEIiIaIGQExJBQ6ye3H37t0NpiJhkpFuNQCduzpqAA4C0k3kIxIWagDElP1xsAeAGgCpSnZGKjGgi7MGIBvr76iIbKUGQEwZYPfCjIwMujob3pUQi8fiZKSlsnuPnk63BD7EVE4iYaAGQEwZYPfC/fbf3+kPdgm57MwMMjIy2HOffZ2EGWQqH5EwUAMgJjTAQQPQr5/WZ8muZaWnkhqP06t3Hydh+gOtDKUkEnhqAMSEkwHbj/AHHWx77aBESJ2sDHr1PtBJiDhwqqF0RAJPDYCYcLrdC1NTU+nt7KlOIiI7M53eBx7odLroDFP5iASdGgBxqjXQz+7FBx/cj9zcXIPpSFjFgBZNGnJQ/wFOwuwFaNMJEdQAiHOn4+Dv0bHHH2cwFQm7zLQ0jjrmGKdhzjWRi0jQxbxOQAItDViEddparcViMRYsWkyrVlqXJTW39tdfad+2DeVlZXZDFADtgLXGkhIJII0AiBNnYrP4A+y7334q/lJrTRo3pm9fRwtHs4FLDaUjElhqAMSuFOBqJwGGDRtmKBWJmjPPPNNpiItwsHOlSBhoCkDsGg68aPfi9PR0Fv+4hMZNmhhMSaKioKCADu3bsWnjRidhrgHuMJORSPBoBEDsSAX+6iTAMcceq+IvtmVnZ3PqqY5f6R8DNDOQjkggqQEQOy7G4fnqZ48ebSgViaqzz3b8d6gecLuBVEQCSVMAUlvNgfmA7Zf3O3bsyJxv5xKP79h/JmIJKhIOsgMSTgMAFQlnMRIkcBiCRMJMDEfX4/z7QcKK40RFIsHOQpwy9Fg+mfGxk9AJ4GDgEydBRIIo1esEJHDG4aD4A4w+/yJ+3pRnKB2JsnMvusRpAxADHgB6AeVGkhIJCE0BSG0cgoNtfwGaNmvOCacMN5SORN3BhxxKjz33chpmH6wFgSKRogZAaqoh8AwOp43OOe8C0tPTzWQkApx/8WUmwtwA6FQqiRStAZCaiAFvAI727W3YqBEfzv6S7JwcM1mJABUVFZx41CDmfjvHaajlWKMB651nJeJ/GgGQmvgLDos/wGVXXqPiL8bF43HG/P1GE6HaYGCUSyQoUrxOQHyvF/A8Dv+udOzUmdvuunenK/9FnNqtdWv+N3cuPy5e5DRUF6AEcLSyUCQI1OnKrrQHZgItnAZ67D/jOWzgkc4zEmNKSko8WY9RVlpKfkG+oxiFBQWUlpRu82tLflzMOWec6vjVR6xXA88BnnYaSMTP1ABIVZoCM4DOTgPl1KnDGWeOpri4iKKiolpfX15WRl6+vdcGt2zabKsg5BfkU1ZaWv0XbqekpITCwoJaX1dRXkHeli21vg5gy5bNVFRU2Lo2PT2dNu3ac8SRQzjrT+e6tjvj57Nn8eL4Z5g1cwZr1/xioki7rQwYCrzjdSIiblEDIDtTB/jg/9u78xiryjOO498ZYO7cueMM4jDDLDA7zIzbIIuxLe6ABUmrsW3ahhptampDWrE0ptWobW2aihvaJl2iTRpTDWXfWhYH1FiBDgMuIIuA4gIF6oIwwzDM3P5xJDFEB+45z7nvXX6f5PzBH+e5Dze59/nN+557DjDWdSOSPAWxGL/+3UN87cabzGp2dXVx96yZLFk436xmEnUC1wDrXTciEgZdAyCni+Bd8T/BdSOSXD09PaxasZyyYeUWv62np+cEt3znW7StXmXQnRODgBuB1cABx72ImNMVWfJZEWA+MMl1I+LOfb+4i107tgeuM2f2g2x8Oe3vsDsELwC0um5ExJoCgJxyavhPdd2IuHWyp4c5Dwd7Su7hQ4f461/+aNSRc+fhhYDgyyIiKUQBQEDDX06zdvUqOo/5v1J/zcp/0t3dbdiRcyV4IeBC142IWFEAkDxgLhr+8hnd3d3s2rnD9/lbX3vVsJuUMRR4DoUAyRB6GmB201/+8oV2vXeUIfX5vs7df9jfTxrTwFBgDXA1sNVxLyKBKABkLw1/6VfnoCr2fhT1dW5uQZlxNymlFG8l4Gpgm+NeRHzTFkB20rK/9CsSjVFZf77v82tbMv4WEmV498rw/yaJOKYAkH0iwAIMHu4jmWvMlTcwKM/f8j9A64Rp5BecY9hRSirFuzBwlOtGRPzQjYCyi5b95Ywi0Ri3P/AMsaJzfdfIi0SJx+O80b7WsLOUdA7ezYKWAf9z3ItIQrQCkD00/OWMcnMHcOs9TzK0si5wranfu4vWCdMMukp5FXjbAYGfmyGSTFoByA4a/nJGxSXl/Og3zzL6cpuhnZOTw7hrbqLr2BHeeqM9HR4AFMSplYAlwAeOexE5K3oYUObT8JfPlReJEisaQnlNE60TrmfCtFuJRGOhvNZ7e7bx4tKneKO9jY8O7aev92SgegPzIuTlFwTu68gH/6W7K9ijiU/zLnAlsNuyqEgYFAAyWyjD/4qv/4ChlbUJnxc7x9+eciQaY8DAxJ9bP2DgIPILCn29ZkHhYMhJ/OMRyY8ycFAk4fNyBwwkP+bvormCWDE5udrN8+OdXa8ye8ZEjn5sun3/Dl4I2GNZVMSaAkDmygP+gfHV/jfcdj/Tbr3HsqSIUwoBkq30Z0Nm0vAXOUvDGy9i1hOrKCw+z7Qs3oWBwa+mFAmJVgAyj4a/iA/7dr7C7BkTOXbE9Bq+fXgrAXsti4pY0ApAZtHwF/FpxMiL+dnvVxErGmJaFlgHJH7RjEjIFAAyh4a/SEAjRrYy64mVYYSAtUCNZVGRoLQFkBk0/EUMvb1jMw/NmMSxTz40LYu3HfCWZVERv7QCkP40/EWMVY8azR2PLiMaKzIti/fsgErLoiJ+KQCkNw1/kZDUX3Apdz62wjoENOBtBygEiHPaAkhfGv4iSfDmay/zyE+mcLzzE8uyu/C2A963LCqSCK0ApCcNf5EkabjwMu6cs8L68caNeCsBFZZFRRKhAJB+NPxFkqzhwsuY+dhy6xAwEmgDyi2LipwtBYD0ouEv4kjjRV9i5qPLiET9PV/iC4zCWwlQCJCk0zUA6UPDXyQF7HrlJR65YyrdXUcty24HrgIOWBYV6Y9WANKDhr9Iimi8+MthrAQ04a0EDLMsKtIfBYDUp+EvkmJGtn6FmY8sJRKNWZZtAlYCJZZFRb7IANcNSL80/EVS1Hnl1dS2jGNT23x6e09alS0DrgPmAZ1WRUU+jwJA6tLwF0lxpZV11LaMo71tPn22IWAy3ue/y6qoyOkUAFKThr9ImiitqqfOPgQMAybhrQQoBEgoFABSj4a/SJopraqntnmsQoCkFQWA1KLhL5KmSqvqqWkew6a2BdYhYCLaDpAQKACkDg1/kTRXVtVATdMl3kpAX69V2XK8lQCFADGlAJAaNPxFMkTZ8AZqmseEEQJOrQQctyoq2U0BwD0Nf5EMUza8geqmS2hvW2AdAq5FIUCMKAC4peEvkqHKhjdSUddCx7pFxPv6rMpWAJfjfW90WxWV7KQA4I6Gv0iGq6hpprLufOsQMBy4Au/744RVUck+CgBuaPiLZImKmmYqa1vYtG4h8bhCgKQOBYDk0/AXyTIVtc1U1Dazad0i6xBwajtAIUASpgCQXBr+IlmqoraF8pomOp43DQEjgAkoBIgPCgDJo+EvkuUq61oorxlFx/OLrUOAVgIkYTmuG8gSoQz/626+98TkW+7tzYGoZV0RCVNOV8eaZ3Of/u3NEcM7BgK8CEwBjloWlcylABC+UIb/VdPv54pv6y9/kXT1+gtzWfDgdMv7BAC8gBcCjlkWlcykLYBwafiLyOcqrT6f4tJqdqxfCsStylYD4/AeIGS6vCCZRwEgPBr+ItKvYXUXM7h0BDs2LMMwBNQD41EIkDNQAAiHhr+InJVh9a0Ulw5np30I0EqA9EsBwJ6Gv4gkpLy+leKhVezcsByFAEkWBQBbGv4i4kt5/WiKSirZudE0BDQAY4H5KATIaRQA7Gj4i0gg5Q2jKSqpYOfGFYQQAuYBpj85kPSmnwHaiOAl7KmuG+lPfqyYIeX1NI6fyvjrbyc2uDSU1zn49lbal/+JPVue4+OD++g50RXK64hIQpYA30A3C5JPKQAElxbD/3R50UKm/HAOrRNvNqvZ13uS1U/9nA2LH7f+bbOI2FgEfBPocd2IuKctgGBygbkYL/snQ+/JE2xfv4T8wsFUNV0auF48HmfBg9PpWPkk8bjZ0qWI2GoCGoEFrhsR9xQAgvkp8GPXTQSxZ/MaGsZcR1FJZaA6G5f+gX/Pf9ioKxEJ0QXAQeA/rhsRt3JdN5DGCoG7XTcRVF9fL8/9LdhFhj3dnTz/9weMOhKRJLgPyHfdhLilAODfVGCw6yYs7N2ylqMfHvB9/u6O1XQeOWzYkYiErBS41nUT4pYCgH9jXTdgJR7vY//uLb7P3//mZsNuRCRJxrluQNwa6LqBNHau6wYs7dv20rLGsZO3+jn33R0bJgGjjVsSkXBl1HeYSDLNxrtTR6YcXw3wXvwqBfrXoUNHYscvkaymLQD/MukK2j6gI8D57VaNiEjS6HOb5XQjIP8KgX1kxjLaamBSgPOjeO9FiU07IhKyg0A1cNx1I+KO7gPg3wm8u2lNdt1IQCeB7wLvB6zRBUwx6UhEwjYLWO+6CZF0lot3G2DXe3lBDqsbGeUAz6TA/0eHDh39H0+j1V9BKwBBxYGFQBEwnvT6UB0BbgP+bFhzEVAAXIquLxFJNb3AQ3ihv89xL5ICFACC6wP+BSz+9N9FQIzU/InlR8DreEN/OvCycf043vUE8/Del2K8QDDI+HVE5OwcB94EngW+j7dKp+EvAPwftP1dfo45bMQAAAAASUVORK5CYII=;" parent="1" vertex="1">
          <mxGeometry x="207.21000000000004" y="-142.17000000000002" width="71.58" height="71.58" as="geometry" />
        </mxCell>
        <mxCell id="AkpmsK5XjDnflj3CIGK0-61" value="" style="shape=image;html=1;verticalAlign=top;verticalLabelPosition=bottom;labelBackgroundColor=#ffffff;imageAspect=0;aspect=fixed;image=https://icons.diagrams.net/icon-cache1/Science___Technology_Outline_24_px-2370/Chemical_dropper_color_picker_dropper_laboratory_tool_pipette-798.svg;rotation=135;imageBackground=default;" parent="1" vertex="1">
          <mxGeometry x="39" y="-142.17" width="39.5" height="39.5" as="geometry" />
        </mxCell>
        <mxCell id="AkpmsK5XjDnflj3CIGK0-62" value="" style="endArrow=classic;html=1;rounded=0;" parent="1" edge="1">
          <mxGeometry width="50" height="50" relative="1" as="geometry">
            <mxPoint x="230.79000000000002" y="-282.75" as="sourcePoint" />
            <mxPoint x="259.21000000000004" y="-269.62" as="targetPoint" />
          </mxGeometry>
        </mxCell>
        <mxCell id="AkpmsK5XjDnflj3CIGK0-63" value="" style="endArrow=classic;html=1;rounded=0;" parent="1" edge="1">
          <mxGeometry width="50" height="50" relative="1" as="geometry">
            <mxPoint x="230.79000000000002" y="-282.75" as="sourcePoint" />
            <mxPoint x="231.21" y="-249.62" as="targetPoint" />
          </mxGeometry>
        </mxCell>
        <mxCell id="AkpmsK5XjDnflj3CIGK0-64" value="" style="endArrow=classic;html=1;rounded=0;" parent="1" edge="1">
          <mxGeometry width="50" height="50" relative="1" as="geometry">
            <mxPoint x="230.79000000000002" y="-282.75" as="sourcePoint" />
            <mxPoint x="270.7900000000001" y="-282.75" as="targetPoint" />
          </mxGeometry>
        </mxCell>
        <mxCell id="AkpmsK5XjDnflj3CIGK0-65" value="x" style="text;html=1;align=center;verticalAlign=middle;resizable=0;points=[];autosize=1;strokeColor=none;fillColor=none;" parent="1" vertex="1">
          <mxGeometry x="233" y="-303.75" width="30" height="30" as="geometry" />
        </mxCell>
        <mxCell id="AkpmsK5XjDnflj3CIGK0-67" value="y" style="text;html=1;align=center;verticalAlign=middle;resizable=0;points=[];autosize=1;strokeColor=none;fillColor=none;" parent="1" vertex="1">
          <mxGeometry x="228" y="-287.75" width="30" height="30" as="geometry" />
        </mxCell>
        <mxCell id="AkpmsK5XjDnflj3CIGK0-68" value="z" style="text;html=1;align=center;verticalAlign=middle;resizable=0;points=[];autosize=1;strokeColor=none;fillColor=none;" parent="1" vertex="1">
          <mxGeometry x="210" y="-283.75" width="30" height="30" as="geometry" />
        </mxCell>
        <mxCell id="AkpmsK5XjDnflj3CIGK0-70" value="" style="shape=image;verticalLabelPosition=bottom;labelBackgroundColor=default;verticalAlign=top;aspect=fixed;imageAspect=0;editableCssRules=.*;image=data:image/svg+xml,PHN2ZyB4bWxuczp4bGluaz0iaHR0cDovL3d3dy53My5vcmcvMTk5OS94bGluayIgeG1sbnM9Imh0dHA6Ly93d3cudzMub3JnLzIwMDAvc3ZnIiBvdmVyZmxvdz0iaGlkZGVuIiB4bWw6c3BhY2U9InByZXNlcnZlIiBoZWlnaHQ9IjgxMC45MDM5OTE2OTkyMTg4IiB3aWR0aD0iODQ1Ljg0NDM2MDM1MTU2MjUiIHZpZXdCb3g9IjMxLjIwMzk5NDc1MDk3NjU2MiAyNy4wOTYwMDgzMDA3ODEyNSA4NDUuODQ0MzYwMzUxNTYyNSA4MTAuOTAzOTkxNjk5MjE4OCI+PGcgdHJhbnNmb3JtPSJ0cmFuc2xhdGUoLTEzMiAtOTQyKSI+PGc+PGc+PGc+PHBhdGggZD0iTTgzMyAxMTUwLjU5QzgxOS4zMjMgMTE1MC41OSA4MDcuMzI5IDExNDAuOTEgODA0LjM4MyAxMTI3LjY1IDgwMS4yMjcgMTExNC4xOSA4MDcuOTYgMTEwMC41MSA4MjAuMzc1IDEwOTQuNjJMODIwLjM3NSAxMDAyLjA0QzgyMC4zNzUgOTk1LjA5MiA4MjYuMDU2IDk4OS40MSA4MzMgOTg5LjQxIDgzOS45NDQgOTg5LjQxIDg0NS42MjUgOTk1LjA5MiA4NDUuNjI1IDEwMDIuMDRMODQ1LjYyNSAxMDk0LjYyQzg1OC4wNCAxMTAwLjUxIDg2NC41NjIgMTExNC4xOSA4NjEuNjE3IDExMjcuNjUgODU4LjQ2IDExNDAuOTEgODQ2LjY3NyAxMTUwLjM4IDgzMyAxMTUwLjU5TDgzMyAxMTUwLjU5Wk04NTguMjUgMTA4Ny40NiA4NTguMjUgMTAwMi4wNEM4NTguMjUgOTg4LjE0OCA4NDYuODg4IDk3Ni43ODUgODMzIDk3Ni43ODUgODE5LjExMiA5NzYuNzg1IDgwNy43NSA5ODcuOTM4IDgwNy43NSAxMDAyLjA0TDgwNy43NSAxMDg3LjQ2Qzc5My4yMzEgMTA5OC40MSA3ODcuMzQgMTExNy4zNCA3OTMuMDIxIDExMzQuMzkgNzk4LjcwMiAxMTUxLjY0IDgxNC45MDQgMTE2My4yMSA4MzMgMTE2My4yMSA4NTEuMDk2IDExNjMuMjEgODY3LjI5OCAxMTUxLjY0IDg3Mi45NzkgMTEzNC4zOSA4NzguNjYgMTExNy4zNCA4NzIuNzY5IDEwOTguNDEgODU4LjI1IDEwODcuNDZaIi8+PHBhdGggZD0iTTgzNy4yMDggMTEwMC41MSA4MzcuMjA4IDEwNDkuNTkgODI4Ljc5MiAxMDQ5LjU5IDgyOC43OTIgMTEwMC41MUM4MTguMjcxIDExMDIuNjEgODEwLjkwNiAxMTEyLjUgODEyLjE2OSAxMTIzLjI0IDgxMy4yMjEgMTEzMy45NyA4MjIuMjY5IDExNDIuMTcgODMzIDExNDIuMTcgODQzLjczMSAxMTQyLjE3IDg1Mi43NzkgMTEzMy45NyA4NTMuODMxIDExMjMuMjQgODU1LjA5NCAxMTEyLjUgODQ3LjcyOSAxMTAyLjYxIDgzNy4yMDggMTEwMC41MVoiLz48L2c+PC9nPjwvZz48Zz48Zz48Zz48cGF0aCBkPSJNNzAwLjQ4NSAxMjgwLjUxQzY5My4xMjEgMTI3My4xNSA2ODEuMTI3IDEyNzMuMTUgNjczLjc2MyAxMjgwLjUxIDY3My4zNDIgMTI4MC45NCA2NjAuOTI3IDEyOTMuMzUgNjYwLjkyNyAxMjkzLjM1TDY1My41NjIgMTI4NS45OUM2NTAuMTk2IDEyODIuNjIgNjQ0LjkzNSAxMjgyLjYyIDY0MS41NjkgMTI4NS45OUw2MzguNjIzIDEyODguOTNDNjM1LjI1NiAxMjkyLjMgNjM1LjI1NiAxMjk3LjU2IDYzOC42MjMgMTMwMC45M0w2NDUuOTg3IDEzMDguMjkgNTQ5LjQwNiAxNDA0Ljg3QzU1NC4yNDYgMTQwOS43MSA1NTQuMjQ2IDE0MTcuNzEgNTQ5LjQwNiAxNDIyLjc2TDU0OS40MDYgMTQyMi43NiA1MzkuNzI3IDE0MzIuNDRDNTM3LjIwMiAxNDM0Ljk2IDUzNy4yMDIgMTQzOC45NiA1MzkuNzI3IDE0NDEuMjcgNTQwLjk5IDE0NDIuNTQgNTQyLjY3MyAxNDQzLjE3IDU0NC4xNDYgMTQ0My4xNyA1NDUuNjE5IDE0NDMuMTcgNTQ3LjMwMiAxNDQyLjU0IDU0OC41NjUgMTQ0MS4yN0w1NTguMjQ0IDE0MzEuNTkgNTU4LjI0NCAxNDMxLjU5QzU2My4wODMgMTQyNi43NSA1NzEuMDc5IDE0MjYuNzUgNTc2LjEyOSAxNDMxLjU5TDU3Ny42MDIgMTQzMC4xMiA2NzIuNzEgMTMzNS4wMSA2ODAuMDc1IDEzNDIuMzhDNjgzLjQ0MiAxMzQ1Ljc0IDY4OC43MDIgMTM0NS43NCA2OTIuMDY5IDEzNDIuMzhMNjk1LjAxNSAxMzM5LjQzQzY5OC4zODEgMTMzNi4wNiA2OTguMzgxIDEzMzAuOCA2OTUuMDE1IDEzMjcuNDRMNjg3LjY1IDEzMjAuMDdDNjg3LjY1IDEzMjAuMDcgNzAwLjA2NSAxMzA3LjY2IDcwMC40ODUgMTMwNy4yNCA3MDcuODUgMTI5OS44NyA3MDcuODUgMTI4Ny44OCA3MDAuNDg1IDEyODAuNTFaTTYyMy42ODMgMTM2Ni4xNUM2MjEuMTU4IDEzNjguNjggNjE3LjE2IDEzNjguNjggNjE0Ljg0NiAxMzY2LjE1IDYxMi41MzEgMTM2My42MyA2MTIuMzIxIDEzNTkuNjMgNjE0Ljg0NiAxMzU3LjMyTDY0Ny44ODEgMTMyNC4yOCA2NTYuNzE5IDEzMzMuMTIgNjIzLjY4MyAxMzY2LjE1WiIvPjwvZz48L2c+PC9nPjxnPjxnPjxnPjxwYXRoIGQ9Ik01NTYuMjQyIDEwMTkuMzlDNTM2LjEzNSAxMDE5LjM5IDUxOS44MzYgMTAzNS42OCA1MTkuODM2IDEwNTUuNzkgNTE5LjgzNiAxMDU2LjU5IDUxOS44MzYgMTA1Ny4zNyA1MTkuODM2IDEwNTguMjIgNTM3Ljg0MyAxMDQ5LjQ2IDU1OS41NDQgMTA1Ni45NSA1NjguMzA4IDEwNzQuOTUgNTcwLjM4NyAxMDc5LjIzIDU3MS42MDYgMTA4My44NiA1NzEuODk3IDEwODguNjEgNTkwLjAyIDEwNzkuOSA1OTcuNjUyIDEwNTguMTUgNTg4Ljk0MyAxMDQwLjAyIDU4Mi44OTkgMTAyNy40NSA1NzAuMTk3IDEwMTkuNDMgNTU2LjI0MiAxMDE5LjM5Wk01ODAuNTEzIDEwNTMuMzZDNTc5LjE3MyAxMDUzLjM2IDU3OC4wODYgMTA1Mi4yOCA1NzguMDg2IDEwNTAuOTQgNTc4LjA4NiAxMDQxLjU1IDU3MC40NzkgMTAzMy45NSA1NjEuMDk2IDEwMzMuOTUgNTU5Ljc1NiAxMDMzLjk1IDU1OC42NjkgMTAzMi44NiA1NTguNjY5IDEwMzEuNTIgNTU4LjY2OSAxMDMwLjE4IDU1OS43NTYgMTAyOS4wOSA1NjEuMDk2IDEwMjkuMDkgNTczLjE2IDEwMjkuMDkgNTgyLjk0IDEwMzguODcgNTgyLjk0IDEwNTAuOTQgNTgyLjk0IDEwNTIuMjggNTgxLjg1NCAxMDUzLjM2IDU4MC41MTMgMTA1My4zNloiLz48cGF0aCBkPSJNNTM1LjYxMiAxMDU5LjQzQzUxOC4xODYgMTA1OS40MyA1MDQuMDYgMTA3My41NiA1MDQuMDYgMTA5MC45OCA1MDQuMDYgMTEwOC40MSA1MTguMTg2IDExMjIuNTQgNTM1LjYxMiAxMTIyLjU0IDU1My4wMzggMTEyMi41NCA1NjcuMTY0IDExMDguNDEgNTY3LjE2NCAxMDkwLjk4IDU2Ny4xNjQgMTA3My41NiA1NTMuMDM4IDEwNTkuNDMgNTM1LjYxMiAxMDU5LjQzWk01NTUuMDI5IDEwODguNTZDNTUzLjY4OCAxMDg4LjU2IDU1Mi42MDIgMTA4Ny40NyA1NTIuNjAyIDEwODYuMTMgNTUyLjYwMiAxMDc5LjQzIDU0Ny4xNjggMTA3My45OSA1NDAuNDY2IDEwNzMuOTkgNTM5LjEyNiAxMDczLjk5IDUzOC4wMzkgMTA3Mi45MSA1MzguMDM5IDEwNzEuNTcgNTM4LjAzOSAxMDcwLjIzIDUzOS4xMjYgMTA2OS4xNCA1NDAuNDY2IDEwNjkuMTQgNTQ5Ljg0OSAxMDY5LjE0IDU1Ny40NTYgMTA3Ni43NSA1NTcuNDU2IDEwODYuMTMgNTU3LjQ1NiAxMDg3LjQ3IDU1Ni4zNjkgMTA4OC41NiA1NTUuMDI5IDEwODguNTZaIi8+PHBhdGggZD0iTTQ4Ny4wNyAxMDIwLjZDNDc1LjAwNiAxMDIwLjYgNDY1LjIyNyAxMDMwLjM4IDQ2NS4yMjcgMTA0Mi40NCA0NjUuMjI3IDEwNTQuNTEgNDc1LjAwNiAxMDY0LjI5IDQ4Ny4wNyAxMDY0LjI5IDQ5OS4xMzQgMTA2NC4yOSA1MDguOTE0IDEwNTQuNTEgNTA4LjkxNCAxMDQyLjQ0IDUwOC45MTQgMTAzMC4zOCA0OTkuMTM0IDEwMjAuNiA0ODcuMDcgMTAyMC42Wk00OTcuOTkyIDEwNDEuMjNDNDk2LjY1MiAxMDQxLjIzIDQ5NS41NjUgMTA0MC4xNCA0OTUuNTY1IDEwMzguOCA0OTUuNTY1IDEwMzYuMTIgNDkzLjM5MiAxMDMzLjk1IDQ5MC43MTEgMTAzMy45NSA0ODkuMzcgMTAzMy45NSA0ODguMjg0IDEwMzIuODYgNDg4LjI4NCAxMDMxLjUyIDQ4OC4yODQgMTAzMC4xOCA0ODkuMzcgMTAyOS4wOSA0OTAuNzExIDEwMjkuMDkgNDk2LjA3MyAxMDI5LjA5IDUwMC40MTkgMTAzMy40NCA1MDAuNDE5IDEwMzguOCA1MDAuNDE5IDEwNDAuMTQgNDk5LjMzMyAxMDQxLjIzIDQ5Ny45OTIgMTA0MS4yM1oiLz48cGF0aCBkPSJNNjA1Ljk5NyAxMTEyLjgzQzU5Mi41OTMgMTExMi44MyA1ODEuNzI3IDExMjMuNjkgNTgxLjcyNyAxMTM3LjEgNTgxLjcyNyAxMTUwLjUgNTkyLjU5MyAxMTYxLjM3IDYwNS45OTcgMTE2MS4zNyA2MTkuNDAyIDExNjEuMzcgNjMwLjI2OCAxMTUwLjUgNjMwLjI2OCAxMTM3LjEgNjMwLjI2OCAxMTIzLjY5IDYxOS40MDIgMTExMi44MyA2MDUuOTk3IDExMTIuODNaTTYxOC4xMzMgMTEzNi4zQzYxNi41NyAxMTM2LjI4IDYxNS4zMDYgMTEzNS4wMiA2MTUuMjkzIDExMzMuNDYgNjE1LjI5MyAxMTMwLjM0IDYxMi43NjEgMTEyNy44IDYwOS42MzggMTEyNy44IDYwOC4wNyAxMTI3LjggNjA2Ljc5OCAxMTI2LjUzIDYwNi43OTggMTEyNC45NiA2MDYuNzk4IDExMjMuNCA2MDguMDcgMTEyMi4xMiA2MDkuNjM4IDExMjIuMTIgNjE1Ljg5MiAxMTIyLjE0IDYyMC45NTkgMTEyNy4yIDYyMC45NzIgMTEzMy40NiA2MjAuOTU5IDExMzUuMDIgNjE5LjY5NiAxMTM2LjI4IDYxOC4xMzMgMTEzNi4zWiIvPjxwYXRoIGQ9Ik02MTguNjY3IDEwMDMuNjFDNjE4LjY2NyAxMDEzLjI5IDYxMC44MjEgMTAyMS4xMyA2MDEuMTQzIDEwMjEuMTMgNTkxLjQ2NSAxMDIxLjEzIDU4My42MiAxMDEzLjI5IDU4My42MiAxMDAzLjYxIDU4My42MiA5OTMuOTMxIDU5MS40NjUgOTg2LjA4NiA2MDEuMTQzIDk4Ni4wODYgNjEwLjgyMSA5ODYuMDg2IDYxOC42NjcgOTkzLjkzMSA2MTguNjY3IDEwMDMuNjFaIi8+PHBhdGggZD0iTTQ5Ni43NzkgMTEyOS44MkM0OTYuNzc5IDExNDAuNTQgNDg4LjA4NiAxMTQ5LjIzIDQ3Ny4zNjIgMTE0OS4yMyA0NjYuNjM4IDExNDkuMjMgNDU3Ljk0NSAxMTQwLjU0IDQ1Ny45NDUgMTEyOS44MiA0NTcuOTQ1IDExMTkuMDkgNDY2LjYzOCAxMTEwLjQgNDc3LjM2MiAxMTEwLjQgNDg4LjA4NiAxMTEwLjQgNDk2Ljc3OSAxMTE5LjA5IDQ5Ni43NzkgMTEyOS44MloiLz48cGF0aCBkPSJNNTI1LjIyNCA5ODQuMTkzQzUyNS4yMjQgOTkyLjUzIDUxOC40NjUgOTk5LjI4OSA1MTAuMTI4IDk5OS4yODkgNTAxLjc5IDk5OS4yODkgNDk1LjAzMSA5OTIuNTMgNDk1LjAzMSA5ODQuMTkzIDQ5NS4wMzEgOTc1Ljg1NSA1MDEuNzkgOTY5LjA5NiA1MTAuMTI4IDk2OS4wOTYgNTE4LjQ2NSA5NjkuMDk2IDUyNS4yMjQgOTc1Ljg1NSA1MjUuMjI0IDk4NC4xOTNaIi8+PHBhdGggZD0iTTQ3Ni4xNDggOTk2LjMyOEM0NzYuMTQ4IDEwMDAuMzUgNDcyLjg4OSAxMDAzLjYxIDQ2OC44NjcgMTAwMy42MSA0NjQuODQ2IDEwMDMuNjEgNDYxLjU4NiAxMDAwLjM1IDQ2MS41ODYgOTk2LjMyOCA0NjEuNTg2IDk5Mi4zMDcgNDY0Ljg0NiA5ODkuMDQ3IDQ2OC44NjcgOTg5LjA0NyA0NzIuODg5IDk4OS4wNDcgNDc2LjE0OCA5OTIuMzA3IDQ3Ni4xNDggOTk2LjMyOFoiLz48cGF0aCBkPSJNNjIxLjc3MyAxMDkwLjk4QzYyMS43NzMgMTA5NS4wMSA2MTguNTEzIDEwOTguMjcgNjE0LjQ5MiAxMDk4LjI3IDYxMC40NzEgMTA5OC4yNyA2MDcuMjExIDEwOTUuMDEgNjA3LjIxMSAxMDkwLjk4IDYwNy4yMTEgMTA4Ni45NiA2MTAuNDcxIDEwODMuNyA2MTQuNDkyIDEwODMuNyA2MTguNTEzIDEwODMuNyA2MjEuNzczIDEwODYuOTYgNjIxLjc3MyAxMDkwLjk4WiIvPjxwYXRoIGQ9Ik01MjQuNjkgMTE0NC4zOEM1MjQuNjkgMTE0OC40IDUyMS40MyAxMTUxLjY2IDUxNy40MDkgMTE1MS42NiA1MTMuMzg4IDExNTEuNjYgNTEwLjEyOCAxMTQ4LjQgNTEwLjEyOCAxMTQ0LjM4IDUxMC4xMjggMTE0MC4zNiA1MTMuMzg4IDExMzcuMSA1MTcuNDA5IDExMzcuMSA1MjEuNDMgMTEzNy4xIDUyNC42OSAxMTQwLjM2IDUyNC42OSAxMTQ0LjM4WiIvPjwvZz48L2c+PC9nPjx0ZXh0IHRyYW5zZm9ybT0idHJhbnNsYXRlKDQ0Mi43MDIgMTIyNCkiIGZvbnQtc2l6ZT0iNTEiIGZvbnQtd2VpZ2h0PSI3MDAiIGZvbnQtZmFtaWx5PSJSb2Nrd2VsbCxSb2Nrd2VsbF9NU0ZvbnRTZXJ2aWNlLHNhbnMtc2VyaWYiPkFkZGl0aXZlPC90ZXh0Pjx0ZXh0IHRyYW5zZm9ybT0idHJhbnNsYXRlKDQ1Ni4yMiAxNTA4KSIgZm9udC1zaXplPSI1MSIgZm9udC13ZWlnaHQ9IjcwMCIgZm9udC1mYW1pbHk9IlJvY2t3ZWxsLFJvY2t3ZWxsX01TRm9udFNlcnZpY2Usc2Fucy1zZXJpZiI+Q29uY2VudHJhdGlvbjwvdGV4dD48dGV4dCB0cmFuc2Zvcm09InRyYW5zbGF0ZSg2ODMuNjQyIDEyMjMpIiBmb250LXNpemU9IjUxIiBmb250LXdlaWdodD0iNzAwIiBmb250LWZhbWlseT0iUm9ja3dlbGwsUm9ja3dlbGxfTVNGb250U2VydmljZSxzYW5zLXNlcmlmIj5UZW1wZXJhdHVyZTwvdGV4dD48Zz48Zz48Zz48cGF0aCBkPSJNMjY2LjgzMyAxNzA2LjE3IDM0MS44MTIgMTYzNSAyNjYuODMzIDE1NjMuODMgMjY2LjgzMyAxNzA2LjE3WiIvPjxwYXRoIGQ9Ik0zNDUuNjI1IDE3MDYuMTcgNDIwLjYwNCAxNjM1IDM0NS42MjUgMTU2My44MyAzNDUuNjI1IDE3MDYuMTdaIi8+PC9nPjwvZz48L2c+PHRleHQgdHJhbnNmb3JtPSJ0cmFuc2xhdGUoMTYzLjIwNCAxNzY4KSIgZm9udC1zaXplPSI1MSIgZm9udC13ZWlnaHQ9IjcwMCIgZm9udC1mYW1pbHk9IlJvY2t3ZWxsLFJvY2t3ZWxsX01TRm9udFNlcnZpY2Usc2Fucy1zZXJpZiI+Q2FzdGluZyBTcGVlZDwvdGV4dD48Zz48Zz48Zz48cGF0aCB0cmFuc2Zvcm09Im1hdHJpeCgxLjAwNDEyIDAgMCAxIDE2MCA5NDIpIiBkPSJNMTM5LjQ3MiAxODMuNTE2QzEzOS40NzIgMTkzLjM4NyAxMzEuNjI1IDIwMS4yMzQgMTIxLjc1MyAyMDEuMjM0IDExMS44ODEgMjAxLjIzNCAxMDQuMDM0IDE5My4zODcgMTA0LjAzNCAxODMuNTE2IDEwNC4wMzQgMTczLjY0NCAxMjEuNzUzIDE0OC4wNzggMTIxLjc1MyAxNDguMDc4IDEyMS43NTMgMTQ4LjA3OCAxMzkuNDcyIDE3My44OTcgMTM5LjQ3MiAxODMuNTE2WiIvPjxwYXRoIHRyYW5zZm9ybT0ibWF0cml4KDEuMDA0MTIgMCAwIDEgMTYwIDk0MikiIGQ9Ik0xNzcuNDQxIDE3My4zOTFDMTc3LjQ0MSAxODAuNDc4IDE3MS44NzIgMTg2LjA0NyAxNjQuNzg0IDE4Ni4wNDcgMTU3LjY5NyAxODYuMDQ3IDE1Mi4xMjggMTgwLjQ3OCAxNTIuMTI4IDE3My4zOTEgMTUyLjEyOCAxNjYuMzAzIDE2NC43ODQgMTQ4LjA3OCAxNjQuNzg0IDE0OC4wNzggMTY0Ljc4NCAxNDguMDc4IDE3Ny40NDEgMTY2LjU1NiAxNzcuNDQxIDE3My4zOTFaIi8+PHBhdGggdHJhbnNmb3JtPSJtYXRyaXgoMS4wMDQxMiAwIDAgMSAxNjAgOTQyKSIgZD0iTTkxLjM3ODEgMTczLjM5MUM5MS4zNzgxIDE4MC40NzggODUuODA5NCAxODYuMDQ3IDc4LjcyMTkgMTg2LjA0NyA3MS42MzQ0IDE4Ni4wNDcgNjYuMDY1NiAxODAuNDc4IDY2LjA2NTYgMTczLjM5MSA2Ni4wNjU2IDE2Ni4zMDMgNzguNzIxOSAxNDguMDc4IDc4LjcyMTkgMTQ4LjA3OCA3OC43MjE5IDE0OC4wNzggOTEuMzc4MSAxNjYuNTU2IDkxLjM3ODEgMTczLjM5MVoiLz48cGF0aCB0cmFuc2Zvcm09Im1hdHJpeCgxLjAwNDEyIDAgMCAxIDE2MCA5NDIpIiBkPSJNMjA3LjgxNiAxMTMuOTA2QzIwNy44MTYgMTA2LjgxOSAyMDQuNzc4IDEwMC4yMzcgMTk5LjQ2MyA5NS42ODEzIDE5NC4xNDcgOTEuMTI1IDE4Ny4wNTkgODkuMSAxNzkuOTcyIDkwLjM2NTZMMTc5Ljk3MiA5MC4xMTI1QzE3OS45NzIgODAuNDkzOCAxNzUuNDE2IDcxLjEyODEgMTY3LjMxNiA2NS41NTk0IDE1OS40NjkgNTkuNzM3NSAxNDkuMzQ0IDU4LjIxODggMTM5Ljk3OCA2MS4yNTYzIDEzMi4xMzEgNDYuNTc1IDExNS4xNzIgMzguOTgxMyA5OC45NzE5IDQzLjAzMTIgODIuNzcxOSA0Ni44MjgxIDcxLjEyODEgNjEuMjU2MyA3MC44NzUgNzcuOTYyNSA1OS43Mzc1IDc1LjkzNzUgNDguMzQ2OSA4MC4yNDA2IDQxLjUxMjUgODkuMSAzNC40MjUgOTcuOTU5NCAzMi45MDYyIDEwOS44NTYgMzcuNDYyNSAxMjAuMjM0IDQyLjAxODcgMTMwLjYxMyA1MS44OTA2IDEzNy40NDcgNjMuMjgxMiAxMzguMjA2TDE4NC43ODEgMTM4LjIwNkMxOTcuOTQ0IDEzNy40NDcgMjA3LjgxNiAxMjYuODE2IDIwNy44MTYgMTEzLjkwNloiLz48L2c+PC9nPjwvZz48dGV4dCB0cmFuc2Zvcm09InRyYW5zbGF0ZSgxNjQuNzYgMTIyNCkiIGZvbnQtc2l6ZT0iNTEiIGZvbnQtd2VpZ2h0PSI3MDAiIGZvbnQtZmFtaWx5PSJSb2Nrd2VsbCxSb2Nrd2VsbF9NU0ZvbnRTZXJ2aWNlLHNhbnMtc2VyaWYiPkh1bWlkaXR5PC90ZXh0PjxnPjxnPjxnPjxwYXRoIHRyYW5zZm9ybT0ibWF0cml4KDEuMDA0MTIgMCAwIDEgMTY2IDEyMzgpIiBkPSJNMTE2LjQzOCA3Ni4xOTA2IDExNi40MzggODYuMzE1NkMxMTguMjA5IDg2LjMxNTYgMTE5LjcyOCA4Ni4wNjI1IDEyMS41IDg2LjA2MjUgMTIzLjI3MiA4Ni4wNjI1IDEyNC43OTEgODYuMDYyNSAxMjYuNTYyIDg2LjMxNTZMMTI2LjU2MiA3Ni4xOTA2QzEzNi40MzQgNzYuNjk2OSAxNDUuOCA3OC43MjE5IDE1NC40MDYgODIuMDEyNUwxNTAuNjA5IDkxLjEyNUMxNTMuOSA5Mi4zOTA2IDE1Ni45MzggOTMuNjU2MiAxNTkuOTc1IDk1LjE3NUwxNjMuNzcyIDg1LjgwOTRDMTY4LjU4MSA4OC4wODc1IDE3Mi44ODQgOTAuODcxOSAxNzcuMTg4IDkzLjkwOTRMMTg4LjA3MiA4My4wMjVDMTY5LjU5NCA2OS4xMDMxIDE0Ni41NTkgNjAuNzUgMTIxLjUgNjAuNzUgNTkuOTkwNiA2MC43NSAxMC4xMjUgMTEwLjYxNiAxMC4xMjUgMTcyLjEyNUwxMC4xMjUgMTgyLjI1IDI1LjMxMjUgMTgyLjI1IDI1LjMxMjUgMTcyLjEyNUMyNS4zMTI1IDE2MS43NDcgMjcuMDg0NCAxNTEuNjIyIDMwLjEyMTkgMTQyLjI1NkwzOS40ODc1IDE0Ni4wNTNDNDAuNSAxNDIuNzYyIDQxLjc2NTYgMTM5LjcyNSA0My4wMzEyIDEzNi42ODhMMzMuNjY1NiAxMzIuODkxQzM3LjQ2MjUgMTI0LjI4NCA0Mi43NzgxIDExNi4xODQgNDguODUzMSAxMDkuMzVMNTUuOTQwNiAxMTYuNDM4QzU4LjIxODggMTEzLjkwNiA2MC40OTY5IDExMS4zNzUgNjMuMDI4MSAxMDkuMDk3TDU1Ljk0MDYgMTAyLjAwOUM2Mi43NzUgOTUuNjgxMyA3MC42MjE5IDkwLjExMjUgNzkuMjI4MSA4NS44MDk0TDgzLjAyNSA5NS4xNzVDODYuMDYyNSA5My42NTYyIDg5LjEgOTIuMzkwNiA5Mi4zOTA2IDkxLjEyNUw4OC41OTM4IDgxLjc1OTRDOTcuMiA3OC40Njg4IDEwNi41NjYgNzYuNjk2OSAxMTYuNDM4IDc2LjE5MDZaIi8+PHBhdGggdHJhbnNmb3JtPSJtYXRyaXgoMS4wMDQxMiAwIDAgMSAxNjYgMTIzOCkiIGQ9Ik0yMTIuODc4IDEwOC4zMzggMjAxLjk5NCAxMTkuMjIyQzIwNC43NzggMTIzLjUyNSAyMDcuMzA5IDEyOC4wODEgMjA5LjMzNCAxMzIuNjM3TDE5OS45NjkgMTM2LjY4OEMyMDEuMjM0IDEzOS43MjUgMjAyLjUgMTQzLjAxNiAyMDMuNTEyIDE0Ni4wNTNMMjEyLjg3OCAxNDIuMjU2QzIxNS45MTYgMTUxLjYyMiAyMTcuNjg4IDE2MS43NDcgMjE3LjY4OCAxNzIuMTI1TDIxNy42ODggMTgyLjI1IDIzMi44NzUgMTgyLjI1IDIzMi44NzUgMTcyLjEyNUMyMzIuODc1IDE0OC4zMzEgMjI1LjUzNCAxMjYuNTYyIDIxMi44NzggMTA4LjMzOFoiLz48cGF0aCB0cmFuc2Zvcm09Im1hdHJpeCgxLjAwNDEyIDAgMCAxIDE2NiAxMjM4KSIgZD0iTTExNC40MTIgMTY3LjU2OUMxMTMuOTA2IDE2Ny44MjIgMTEzLjY1MyAxNjguMzI4IDExMy4xNDcgMTY4LjgzNCAxMDkuNjAzIDE3My4xMzcgMTEwLjEwOSAxNzkuNDY2IDExNC40MTIgMTgzLjI2MiAxMTguNzE2IDE4Ni44MDYgMTI1LjA0NCAxODYuMyAxMjguODQxIDE4MS45OTdMMjA3LjU2MiA4OC41OTM4IDExNC40MTIgMTY3LjU2OVoiLz48L2c+PC9nPjwvZz48dGV4dCB0cmFuc2Zvcm09InRyYW5zbGF0ZSgxNjMuMjc3IDE1MDgpIiBmb250LXNpemU9IjUxIiBmb250LXdlaWdodD0iNzAwIiBmb250LWZhbWlseT0iUm9ja3dlbGwsUm9ja3dlbGxfTVNGb250U2VydmljZSxzYW5zLXNlcmlmIj5UaGlja25lc3M8L3RleHQ+PC9nPjwvc3ZnPg==;" parent="1" vertex="1">
          <mxGeometry x="84.43" y="-370" width="125.57" height="120.38" as="geometry" />
        </mxCell>
        <mxCell id="nBPd2E6_pD8OVz0HcGxl-13" value="" style="shape=image;verticalLabelPosition=bottom;labelBackgroundColor=default;verticalAlign=top;aspect=fixed;imageAspect=0;image=data:image/png,iVBORw0KGgoAAAANSUhEUgAAAwwAAAMMCAYAAAD+fyB7AAAAAXNSR0IArs4c6QAAAIRlWElmTU0AKgAAAAgABQESAAMAAAABAAEAAAEaAAUAAAABAAAASgEbAAUAAAABAAAAUgEoAAMAAAABAAIAAIdpAAQAAAABAAAAWgAAAAAAAACQAAAAAQAAAJAAAAABAAOgAQADAAAAAQABAACgAgAEAAAAAQAAAwygAwAEAAAAAQAAAwwAAAAAbSa0BAAAAAlwSFlzAAAWJQAAFiUBSVIk8AAAQABJREFUeAHt3Qm8rWdZH+yTOQxhTCIBgSBFBgERaAHDKIiEKQyCiv1wqLWgokipQ6Wf1Cq21U/rUMVWEVoHZpkDYhFltigCMk9hCmMSCIGQke//kKzknJ1z9l5r77Xe9xmu9/e7OXvv9Q7Pfd3PDu+9nzXs22cjQIAAAQIECBAgQIAAAQIECBAgQIAAAQIECBAgQIAAAQIECBAgQIAAAQIECBAgQIAAAQIECBAgQIAAAQIECBAgQIAAAQIECBAgQIAAAQIECBAgQIAAAQIECBAgQIAAAQIECBAgQIAAAQIECBAgQIAAAQIECBAgQIAAAQIECBAgQIAAAQIECBAgQIAAAQIECBAgQIAAAQIECBAgQIAAAQIECBAgQIAAAQIECBAgQIAAAQIECBAgQIAAAQIECBAgQIAAAQIECBAgQIAAAQIECBAgQIAAAQIECBAgQIAAAQIECBAgQIAAAQIECBAgQIAAAQIECBAgQIAAAQIECBAgQIAAAQIECBAgQIAAAQIECBAgQIAAAQIECBAgQIAAAQIECBAgQIAAAQIECBAgQIAAAQIECBAgQIAAAQIECBAgQIAAAQIECBAgQIAAAQIECBAgQIAAAQIECBAgQIAAAQIECBAgQIAAAQIECBAgQIAAAQIECBAgQIAAAQIECBAgQIAAAQIECBAgQIAAAQIECBAgQIAAAQIECBAgQIAAAQIECBAgQIAAAQIECBAgQIAAAQIECBAgQIAAAQIECBAgQIAAAQIECBAgQIAAAQIECBAgQIAAAQIECBAgQIAAAQIECBAgQIAAAQIECBAgQIAAAQIECBAgQIAAAQIECBAgQIAAAQIECBAgQIAAAQIECBAgQIAAAQIECBAgQIAAAQIECBAgQIAAAQIECBAgQIAAAQIECBAgQIAAAQIECBAgQIAAAQIECBAgQIAAAQIECBAgQIAAAQIECBAgQIAAAQIECBAgQIAAAQIECBAgQIAAAQIECBAgQIAAAQIECBAgQIAAAQIECBAgQIAAAQIECBAgQIAAAQIECBAgQIAAAQIECBAgQIAAAQIECBAgQIAAAQIECBAgQIAAAQIECBAgQIAAAQIECBAgQIAAAQIECBAgQIAAAQIECBAgQIAAAQIECBAgQIAAAQIECBAgQIAAAQIECBAgQIAAAQIECBAgQIAAAQIECBAgQIAAAQIECBAgQIAAAQIECBAgQIAAAQIECBAgQIAAAQIECBAgQIAAAQIECBAgQIAAAQIECBAgQIAAAQIECBAgQIAAAQIECBAgQIAAAQIECBAgQIAAAQIECBAgQIAAAQIECBAgQIAAAQIECBAgQIAAAQIECBAgQIAAAQIECBAgQIAAAQIECBAgQIAAAQIECBAgQIAAAQIECBAgQIAAAQJ1ChxW57CMigABAgQIVClwdJWjunJQl+TLEjYCBAgQIECAAAECBCYWeEyu97XK4zUTm7gcAQIECBAgQIAAAQIRODzx3kTtDUMZ3z0TNgIECBAgQIAAAQIEJhRoYXVh0cxYZZhwYrgUAQIECBAgQIAAgZZWFxZNg1UG85YAAQIECBAgQIDARAItrS4sGgarDBNNDpchQIAAAQIECBAYW6DF1YVF02CVYey5K3sCBAgQIECAAIEJBFpcXVg0DFYZJpggLkGAAAECBAgQIDCuQMurC4umwSrDuPNX5gQIECBAgAABAhsWaHl1YdEwWGXY8CRxegIECBAgQIAAgTEFelhdWDQNVhnGnMOyJkCAAAECBAgQ2KBAD6sLi4bBKsMGJ4pTEyBAgAABAgQIjCfQ0+rCommwyjDePJYxAQIECBAgQIDAhgR6Wl1YNAxWGTY0WZyWAAECBAgQIEBgLIEeVxcWTYNVhrHmsmwJECBAgAABAgQ2INDj6sKiYbDKsIEJ45QECBAgQIAAAQLjCPS8urBoGqwyjDOfZUqAAAECBAgQILBmgZ5XFxYNg1WGNU8apyNAgAABAgQIEBhDYITVhUXTYJVhjDktSwIECBAgQIAAgTUKjLC6sGgYrDKsceI4FQECBAgQIECAQP8CI60uLJoGqwz9z2sZEiBAgAABAgQIrElgpNWFRcNglWFNk8dpCBAgQIAAAQIE+hYYcXVh0TRYZeh7bsuOAAECBAgQIEBgDQIjri4sGgarDGuYQE5BgAABAgQIECDQr8DIqwuLpsEqQ7/zW2YECBAgQIAAAQJ7FBh5dWHRMFhl2OMkcjgBAgQIECBAgECfAlYX9u1bNA1WGfqc47IiQIAAAQIECBDYg4DVhSsbBqsMe5hIDiVAgAABAgQIEOhPwOrClc2CVYb+5reMCBAgQIAAAQIE9ihgdeGqDYNVhj1OKocTIECAAAECBAj0IWB14arNglWGPua2LAgQIECAAAECBNYgYHXh0A2DVYY1TDCnIECAAAECBAgQaFfA6sKhmwWrDO3OayMnQIAAAQIECBBYk4DVhZ0bBqsMa5psTkOAAAECBAgQINCWgNWFnZsFqwxtzWmjJUCAAAECBAgQWKOA1YXlGwarDGuceE5FgAABAgQIEKhN4NsyoMNqG9TM4/nmXP+9icVf0P27s8X/E6+jZq5bbZe/cQZ0Ym2DMh4CBAgQIECAwCoC/192LjfDn0j8ZuKuiRG30jDdJfGriXcnNAi7M/hC7P4s8ejEcYkRt5OS9BMSr09cmnhP4gYJGwECBAgQIECgOYFFs7D15viMZPJfEndsLqPVBnx0dj818fTEmYmtDr7fm8kFMT098bhEuYnueTshyf2bxF8nLklsnTuahqDYCBAgQIAAgbYEDtUsbL3R+WDS+uXE7dpK75CjLU+ZeUjizxPnJrbm6/vNmJS/tL858cREL83DdZPLDyf+MnFxYqe5o2kIko0AAQIECBBoQ+A3Msydbm4O9nh5qs4vJm7VRpoHjPLu+a6sJJyVOFhufjadS/kL/KsTP5S4ZqKl7VoZbHmtxssSFyZWnTeahqDZCBAgQIAAgboFll1Z2OlG6B+T5s8nbl5xuuV54z+beF9ip3w8Po/ReanNMxKnJGrdrpGBfU/ihYmvJvY6VzQNQbQRIECAAAECdQqsq1nYesP0f5PukxM3qSTt+2UcL0pclNg6Vt/Xa1JupH8yUf6KP/d2bAbwiMRzEl9OrHveaBqCaiNAgAABAgTqEviNDGfdNz1bz1eep/7GxE8lbpiYcjsuF/uJRLkR2zou37dl8qXU8PcSt0lMuZUXwT8k8SeJKV7fommYsrquRYAAAQIECGwrsKmVhe1uxMvz1F+beHzixMSmtvK0o/JWqOXtPLcbj8fa8ykN6MsT90xsajsyJ/6uxDMS5ySmnieahqDbCBAgQIAAgXkF5mgWtt50lXeQKS9y/ZHE9dbEUV478QeJdTynfOt4fT/9jfNO5uUdlh6WWMcHDB6R83xHosyfzyd2uvamH9c0pAg2AgQIECBAYB6BGpqFrTdb5Z1lXpF4bOLau2A5Ocf8UcLrE+a/0d1a2ym+/4fUvjxtaNWtNBrlnbJ+N/HpxBRjXeUamoYUxUaAAAECBAhMK1Bjs7D1BqqsDpQXJ39fYqe31yyviXh6YjdvZbn1ur6v74Z51ZqUF9rfP7HTdpfsUF6/84nEqteYen9Nw07V9DgBAgQIECCwNoEWmoWtN2NfSfbPS3x34mr7SZS3tHxqYhPvVLN1DL6v/6Z6a41emblx28T+2x3zzX9JfCSxdf/av9c07F9JXzctsI7nDzYNYPAECBCoWKA0C0+qeHzLDK28N/9LEm9PPDFxUsJG4FAC5QX2f5woTzX6nsQtEi1v783g75Mo+dgINCugYWi2dAZOgEDnAj00C52XSHoElhLQNCzFZKeaBTQMNVfH2AgQGFVAszBq5eXdq4CmodfKDpKXhmGQQkuTAIFmBDQLzZTKQAmsJKBpWInLzjUJaBhqqoaxECAwuoBmYfQZIP/eBTQNvVe40/w0DJ0WVloECDQnoFlormQGTGBXApqGXbE5aE4BDcOc+q5NgACBywQ0C2YCgbEENA1j1bv5bDUMzZdQAgQINC6gWWi8gIZPYJcCmoZdwjlseoHDp7+kKxIgQIDA5QK/nn9b/5wFxSRAYHcCt8phf524we4OdxSB6QSsMExn7UoECBDYX6A0C/92/x/4mgCBIQWsNAxZ9raS1jC0VS+jJUCgDwHNQh91lAWBdQloGtYl6TwbEdAwbITVSQkQIHBIAc3CIWk8QGBoAU3D0OWvO3kNQ931MToCBPoS0Cz0VU/ZEFi3gKZh3aLOtxYBDcNaGJ2EAAECOwpoFnYksgMBAhHQNJgG1QloGKoriQERINChgGahw6JKicAGBTQNG8R16tUFNAyrmzmCAAECqwhoFlbRsi8BAgsBTcNCwr+zC2gYZi+BARAg0LHAryW3J3ecn9QIENisQGka7pX47GYv4+wEthfwwW3b+3iUAAECexG4w14OdiwBAsMLlA93u/rwCgBmF9AwzF4CAyBAoGOBZ3ecm9QIENi8wJtziTM2fxlXILC9gIZhex+PEiBAYC8Cf5GDL9rLCRxLgMDQAs8ZOnvJVyOgYaimFAZCgECHAmcnp1d3mJeUCBDYvMDXconnbf4yrkBgZwENw85G9iBAgMBeBPyFcC96jiUwrsDrk/onx01f5jUJaBhqqoaxECDQo8CLk9QFPSYmJwIENirgjw0b5XXyVQQ0DKto2ZcAAQKrC3wxh7xy9cMcQYDAwAKXJPfnD5y/1CsT0DBUVhDDIUCgSwF/KeyyrJIisDGB1+bMn9nY2Z2YwIoCGoYVwexOgACBXQi8NMecv4vjHEKAwJgC/sgwZt2rzVrDUG1pDIwAgY4EzksuL+soH6kQILA5gYtz6hdu7vTOTGB1AQ3D6maOIECAwG4E/MVwN2qOITCewF8l5bPGS1vGNQtoGGqujrERINCTwCuSTFlpsBEgQGA7AX9c2E7HY7MIaBhmYXdRAgQGFCivYXjJgHlLmQCB5QUuzK4vWn53exKYRkDDMI2zqxAgQKAI+MuheUCAwHYCr8qDX9huB48RmENAwzCHumsSIDCqQLkZKJ/LYCNAgMDBBPxR4WAqfja7gIZh9hIYAAECAwmUT3z2dIOBCi5VAisIfDX7etriCmB2nU5AwzCdtSsRIECgCPgLonlAgMDBBF6eH37pYA/4GYG5BTQMc1fA9QkQGE2gvGXi2aMlLV8CBHYU8MeEHYnsMJeAhmEuedclQGBUgYuS+AtGTV7eBAgcVODL+WlZYbARqFJAw1BlWQyKAIHOBfwlsfMCS4/AigIvzf5fWfEYuxOYTEDDMBm1CxEgQOAKgdfmq89e8Z0vCBAYXcAfEUafAZXnr2GovECGR4BAlwKXJKvnd5mZpAgQWFXg3Bxw+qoH2Z/AlAIahim1XYsAAQJXCviL4pUWviIwssCLk3x5y2UbgWoFNAzVlsbACBDoXOD1ye/MznOUHgECOws8e+dd7EFgXgENw7z+rk6AwLgClyb1542bvswJEIjAOYlXkyBQu4CGofYKGR8BAj0L+Mtiz9WVG4GdBV6YXcpbLdsIVC2gYai6PAZHgEDnAm9Jfh/tPEfpESBwaAGvZTq0jUcqEtAwVFQMQyFAYDiBryXj5w6XtYQJECgCn0u8BgWBFgQ0DC1UyRgJEOhZwF8Ye66u3AgcWqB84nt5i2UbgeoFNAzVl8gACRDoXODvk9+HOs9RegQIXFXAHwuuauInlQpoGCotjGERIDCUgBuHocotWQL7PhWDv+VAoBUBDUMrlTJOAgR6FtAw9FxduRG4qkB5S+Xy1so2Ak0IaBiaKJNBEiDQucA7kt97O89RegQIXCngjwRXWviqAQENQwNFMkQCBIYQ8JkMQ5RZkgT2fTwGb+JAoCUBDUNL1TJWAgR6FvAXx56rKzcCVwqUt1Iub6lsI9CMgIahmVIZKAECnQuUpySVpybZCBDoW8AfB/qub5fZaRi6LKukCBBoVMCNRKOFM2wCSwp8OPv93yX3tRuBagQ0DNWUwkAIECCwT8NgEhDoW8Anu/dd326z0zB0W1qJESDQoMCJDY7ZkAkQWF7ghOV3tSeBegQOq2coRkKAAIHhBd4YgbsNrwCAQL8C5bMX7pB4Z78pyqxHASsMPVZVTgQItCjwqAxas9Bi5YyZwPIC5b7r15ff3Z4E6hCwwlBHHYyCAIGxBY5O+u9JfNPYDLInMIzAA5Lpq4bJVqLNC1hhaL6EEiBAoAOBf5UcNAsdFFIKBJYU+JUl97MbgSoEjqhiFAZBgACBcQWOSerPS1xrXAKZExhO4IbJ+B8T7xsucwk3KWCFocmyGTQBAh0J/Ghy+caO8pEKAQLLCTw1u3lq+HJW9ppZwArDzAVweQIEhhYoqwvPTxw3tILkCYwpcIOk/fZE+ZR3G4GqBawwVF0egyNAoHOBH0h+J3Weo/QOLXBhHjo/Ud5q0zamwM+NmbasWxOwFNZaxYyXAIFeBMofbMpfFm/RS0LyuELgC/nqHYlS349cHp/Mv59PnJX4YqI0C/tvZcX/aonrXx7lA75umrhZorwg/lsSt0wcmbD1JXCfpPPavlKSTW8CGobeKiofAgRaEXhkBlqejmRrW6CsDrwt8frL4+/y78cSm9jKU9hukyif13FK4h6JGydsbQucnuE/sO0UjL53AQ1D7xWWHwECtQq8KQO7a62DM65tBcoKwcsSr0iU99IvqwZzbbfOhct7+j8oce+E1yYGocHtthnzuxoctyETIECAAAECGxK4c877NdGUwVdTr2cnTkuUv/TXuJ2YQT0+8bqE+dWWwe/XOKGMiQABAgQIEJhP4Jm5tBu6NgzK++Q/KVFeW9DSVlYefiNxdsJcq9/gvNTp2gkbAQIECBAgQGDf8TEo74zjJq5ug/KahLKa0PpTd6+RHH4y8ZGEOVe3wRNTIxsBAgQIECBAYN/PxMCNW70GpVG4d4fztLy70g8nzkiYf3UalNUsGwECBAgQIEDg62+16Yatvhu2d2dunjrA/Dw6OT4hUV6obR7WZ3D3AeagFAkQIECAAIFtBMrNgJu0ugzOSU1+KlH+Aj/Sdr0k+7uJixPmZD0GfzzSJJQrAQIECBAgcFWBZ+RHbs7qMXhB6nGDq5ZpqJ+Ud+x6e8K8rMOgvPj5uKFmoGQJECBAgACBKwTKi0/LzYAbs/kNyiculw/Os10mcFT++cXERQnzc36D8loTGwECBAgQIDCgwPclZzdj8xu8OnU4acD5t0zKd8tOH06Yp/Ma/J9limUfAgQIECBAoD+BlyUlN2LzGVwS/19ItP42qZv+zbhWLvCihLk6n0GZqzfcdKGdnwABAgQIEKhLoHzo14UJN2HzGJQPL3tAXVOi6tGUpuopiXLjas7OY1A+LNBGgAABAgQIDCTwo8nVjdc8Bh+I/S0GmmvrTPUROdlXEubu9AZ/t85COhcBAgQIECBQv8ArMkQ3XdMbvDHux9c/Paoe4V0zus8lzN9pDS6N+Y2qnhkGR4AAAQIECKxNoLxF4lcTbrimNXhVzK++tiqOfaJbJ/1PJszhaQ0eP/a0k31NAofXNBhjIUCAQIcC5bnzx3SYV80pvTiDe2iiPJ3GtneB9+QU90x8bO+ncoYVBB62wr52JUCAAAECBBoW+NOM3V9mpzMo70ZVPlfAtn6Bm+eUZybM52kMLoh1edcqGwECBAgQINCxQLlxPSfhBmsag/L+9cd2PJ9qSO1bMojywXfm9DQG31tD0Y2BgKckmQMECBDYnMC9currbO70zryfwNvy9WmJ8noR2+YE3pVTPzjBeXPG+5+5zGkbgdkFNAyzl8AACBDoWMD/2U9T3I/nMuUm9rxpLjf8Vd4cgccmyiqDbbMCD8zpj97sJZydwM4CR+y8iz0IECBAYBcCJ+aY30x4DvIu8FY4pLyw+X6JD65wjF33LvDunKI0DPfZ+6mcYRuB8oYJ5bNE3rHNPh4iQIAAAQIEGhMojcKvJb6c8DzvzRs8prH50dNwyydCv9w8n+T3vLw+5x49TR65ECBAgACBEQU0CptvDrY2YL894kSrLOfrZjxnJLbWxvebMdE4VPYLYDgECBAgQGAZAY3CZm6MdrrhfHuK4/Mtlpmhm9+n/OX7ksRONfP4+ow0Dpuf165AgAABAgT2LKBRWN/Nz6o3kl9J9W6z5wo6wToFnpaTrVpH++/dTOOwzlnsXAQIECBAYE0CGoW93+Ts9UbxyWuqpdOsT6C8k095y9W91tbxuzPUOKxvLjsTAQIECBDYtYBGYXc3Muu+AXxrKugd/nY9jTd64Ck5+6WJddfc+ZY31ThsdIo7OQECBAgQOLiARmH5m5VN39hdnBLd4eBl8tNKBP4g49j0PHD+nY01DpX8QhgGAQIECPQtoFHY+aZk6hu33+97ynWR3QnJ4guJqeeG6x3cXOPQxa+VJAgQIECgNgGNwsFvPOa+ITsnE+X42iaL8RxUoLzGZO754voH1kDjcNCp6ocECBAgQGA1AY3CgTcYtd1w/dxq5bT3jALl7W4/kahtDhnPvn0ahxl/MVyaAAECBNoV0CjUf2P36Uyvq7c7xYYc+Y8lazfo9RpoHIb8tZQ0AQIECKwqoFGo92Zm643mE1ctrv1nFyhvs/rxxNZa+r4uE43D7L8qBkCAAAECNQpoFOq6YdnpBvKsTKJr1DiRjGlHAa9laOd3TeOw43S2AwECBAiMIKBRaOfmZf8m4pdHmJyd5njt5HVuYv96+rpuD41Dp7+M0iJAgACB7QU0CnXfoGx3A3lhSnuD7cvr0coFfifj267GHqvTR+NQ+S+W4REgQIDAegQ0CnXeiKxyg/j89UwFZ5lR4Pa59io1t29dXhqHGX95XJoAAQIENiegUajrhmMvN4D339w0ceYJBf4u19rLPHDs/H4ahwl/YVyKAAECBDYr8Lic/ssJNxjtG3wydTx8s9PF2ScSeEKu43eyD4PSOBw50bxxmYoE/Me4omIYCgECexa4R87g/fr3zFjFCZ6bUVxaxUgMYq8C5allarlXxTqO/44M46g6hmIUUwpoGKbUdi0CBAgQWFbgOcvuaL/qBT6VEb6++lEaIAEChxTQMBySxgMECBAgMJPAZ3Ldt8x0bZfdjMDLNnNaZyVAYAoBDcMUyq5BgAABAqsInJ6dy3Pebf0IvLKfVGRCYDwBDcN4NZcxAQIEahcoDYOtL4F3Jp3yQnYbAQINCmgYGiyaIRMgQKBzgb/pPL9R03vdqInLm0DrAhqG1ito/AQIEOhL4ANJp7yGwdafwBv6S0lGBMYQ0DCMUWdZEiBAoBUBN5WtVGr1cb5p9UMcQYBADQIahhqqYAwECBAgsBB42+IL/3Yn8E/J6OLuspIQgQEENAwDFFmKBAgQaEjg7Q2N1VBXE7ggu79/tUPsTYBADQIahhqqYAwECBAgsBAo76Zj61egrDLYCBBoTEDD0FjBDJcAAQIdC5yT3M7uOD+p7dv3IQgECLQnoGFor2ZGTIAAgV4FPtJrYvK6QuCMK77yBQECzQhoGJoplYESIECgewENQ/cl3ndG/ynKkEB/AhqG/moqIwIECLQq8NlWB27cSwuo8dJUdiRQj4CGoZ5aGAkBAgRGF/j86AAD5H/WADlKkUB3AhqG7koqIQIECDQr4Gay2dItPXA1XprKjgTqEdAw1FMLIyFAgMDoAl8ZHWCA/M8fIEcpEuhOQMPQXUklRIAAgWYFygd72foW+FrSu6jvFGVHoD8BDUN/NZURAQIEWhW4sNWBG/dKAuq8EpedCcwvoGGYvwZGQIAAAQKXCfj/pDFmgjqPUWdZdiTgl7ajYkqFAAECjQsc3fj4DX85gWOW281eBAjUIqBhqKUSxkGAAAECbiT7nwNHJkX3Hv3XWYadCfil7ayg0iFAgEDDAtdqeOyGvpyAGi/nZC8CVQloGKoqh8EQIEBgaIHrD539GMkfP0aasiTQl4CGoa96yoYAAQItC2gYWq7ecmPXMCznZC8CVQloGKoqh8EQIEBgaIEbDp39GMmr8Rh1lmVnAhqGzgoqHQIECDQscHLDYzf05QRuttxu9iJAoCYBDUNN1TAWAgQIjC1w8tjpD5H9Nw2RpSQJdCagYeisoNIhQIBAwwJXz9i/seHxG/rOArfceRd7ECBQm4CGobaKGA8BAgTGFrj92Ol3n/23dp+hBAl0KKBh6LCoUiJAgEDDArdreOyGvr3AjfLw9bbfxaMECNQooGGosSrGRIAAgXEF7jxu6t1n/i+6z1CCBDoV0DB0WlhpESBAoFGBUxodt2HvLHD3nXexBwECNQpoGGqsijERIEBgXIGTkvrJ46bfdeYahq7LK7meBTQMPVdXbgQIEGhT4L5tDtuotxG4bh670zaPe4gAgYoFNAwVF8fQCBAgMKjAAwbNu+e075/kjug5QbkR6FlAw9BzdeVGgACBNgXul2Ef2ebQjfoQAg88xM/9mACBBgQ0DA0UyRAJECAwmMB1ku99Bsu553SPTnIP6TlBuRHoXUDD0HuF5UeAAIE2BR7d5rCN+iAC5elI5TUMNgIEGhXQMDRaOMMmQOCgAk/LT1+Q+NpBH/XDlgQensEe1dKAjfWQAt93yEc80JLABzLYH0ic39KgjZUAAQIECBxK4PZ54PmJSxOleRBtGjwytbO1LVBWFsoNpt/Bdg3en/o9NuFF60GwESBAgEB/AhqHdm9Syg3m6f1NyeEy+qlkrFlo00CjMNyvq4QJECAwtoDGoc0blksybU8ee+o2nf1hGf27ExqGtgw0Ck3/2hk8AQIECOxVQOPQ1o1LudH8b3stuuNnE3hwrqxZaMdAozDbr4oLEyBAgECNAhqHdm5izs0EunaNk8iYdhT4m+yhYajfQKOw41S2AwECBAiMLKBxqP9mptxwPmXkSdpo7vfIuDULdRtoFBr95TJsAgQIEJhHQONQ943N2ZkWVhnm+d3Y7VWtLtT7O6VR2O2sdhwBAgQIEIiAxqHem5ynmqHNCJQParO6UJ+BRqGZXyEDJUCAAIEWBDQO9d3snJeJc8MWJs/gYyzv1f/OhIahHgONwuC/lNInQIAAgc0KaBzquekpN6DP3Gy5nX0NAj+ec2gW6jDQKKxhQjsFAQIECBBYVkDjUMcNUPnk7rstWzT7TS5wYq54VkLDMK+BRmHyqe+CBAgQIEDgSgGNw7w3QuVGtDzd5agrS+KrigSek7FoFuYz0ChU9MtgKAQIECBAQOMw301RuSH1Nqv1/Q6eliFpFuYx0CjU9/tgRAQIECBA4AoBjcM8N0gXpgJ3vKIKvphb4BsygM8mNAzTGmgU5p75rk+AAAECBFYQ0DhMe6NUbkzfk7jaCjWy62YEDstpT09oFqYz0ChsZi47KwECBAgQmERA4zDdTVO5Qf2jSarqItsJ/Gwe1CxMY6BR2G4meowAAQIECDQmsGgc3Eht/kbqRxqbGz0N935J5uKEeb5Zgw/E+LGJ8hkXNgIECBAgQKAzgTckHzdTmzX4aozv0tm8aSGdm2eQn0+Y35s3uGULE8IY+xY4vO/0ZEeAAIFZBV4869XHuPgxSfMliZPHSLeKLK+XUbwicf0qRtP3IN6V9N7Xd4qya0FAw9BClYyRAIFWBV7U6sAbG3f5wLCXJ67b2LhbHO6xGXRphL+5xcE3OOYXNDhmQyZAgAABAgRWFCjv5uNpG9MYvDnW11yxPnZfXuDo7FpWFszn6QzK66FsBGYXsMIwewkMgACBzgWsMkxX4PJahvL0JG+3un7zI3PKP0ucuv5TO+MhBN6bn7/jEI/5MYFJBTQMk3K7GAECAwp4HcO0Rb9PLlf+Cm6lYX3u5XUiz088cn2ndKYlBP50iX3sQoAAAQIECHQgUD7Y6syEp3FMa/DGmF+ng/kzdwrXyABelTB/pzf4prmL7/oEFgJWGBYS/iVAgMBmBMqN1ks3c2pn3UbgbnmsvK3tTbbZx0PbC9wgD782cf/td/PoBgTelHN+eAPndUoCuxLQMOyKzUEECBBYSeCFK+1t53UJ3CYnKi+EvtO6TjjQeW57ud2dB8q5plSfVdNgjIUAAQIECBDYvED5hNbPJDytYx6D82P/A5svczdXeHQyOS9hvs5j8OXYX6ub2SSRLgSsMHRRRkkQIFC5wCUZ33MqH2PPwyufHfDMxO8lyte2gwscnR//RqLM1fLaBds8AuUF5ufOc2lXJUCAAAECBOYUuGsu7i+28xu8M3UoT7exHShwq3z7DwlzdH6Dex5YGt8RIECAAAECIwl8IMm6IZvfoDxF6WcS5alio2/lmQY/nShPgzE35zcoH/RoI0CAAAECBAYW+PfJ3U1ZPQZ/n3p828Dz8XbJ/S3mZFW/kz8x8HyUOgECBAgQIBCBGyYuTmga6jEory95euL4xCjb9ZLo7ybMxXrmYflvwpcSXuwcBBsBAgQIEBhd4GUB0DDUZ3BO6vJziZ5f7Hu15PfkxFkJc7A+g/KifBsBAgQIECBAYN9pMXCzVq/BZ1Kf8pz+nhqH0ig8IXFmwtyr0+DS1ObWCRsBAgQIECBA4OsvtP1oHNy41W1wdmr0tMRJDc/ZEzP2pyY+lzDf6jYoK482AgQIECBAgMAVAuWpL27g2jC4KLX6i8SpiRY+u+iwjPO+ieckLkiYZ20Y3Ce1shGoVqD8h8VGgAABAtMKHJ/LfTzhQ8Smdd/r1T6dE5QP1So3429MlKeR1LLdOQP53sSjEzeuZVDGsZTA27LXHZfa004ECBAgQIDAUAJ/lGz99bddg/I0nz9JfH/iRompt9J0PjLxh4lPJsyldg2+J/WzEahawApD1eUxOAIEOhYon6z77oT/DvdR5I8mjTckyqclv+Py+Ez+Xcd27ZykfGbCtybK50ackijzx9a+wPuSwm0SNa1Wta8qg7UL+D+qtZM6IQECBJYWeFH2PG3pve3YmkB5X/0zEh9JfCpR3s60xLmJCxPlNQblRvGYxNGJqyeunyirB9+QODlxs0T53tanwA8mrWf1mZqsehLQMPRUTbkQINCawN0y4PJceBsBAuMJnJGUb5EoH6BnI1C1QAvv+FA1oMERIEBgDwJvyrF/vYfjHUqAQLsC/ylD1yy0W7+hRm6FYahyS5YAgQoF7pEx/W2F4zIkAgQ2J/D+nLq8duGSzV3CmQmsT8AKw/osnYkAAQK7EXhdDnr1bg50DAECzQr8YkauWWi2fOMN3ArDeDWXMQEC9Ql4LUN9NTEiApsSKO+idYdEeStcG4EmBI5oYpQGSYAAgb4FPpH0yg2Et8rsu86yI1AEHpv4EAoCLQlYYWipWsZKgEDPAt+c5P4pcVTPScqNwOACr0z+pw5uIP0GBawwNFg0QyZAoEuB8v78JyTu0mV2kiJAoLxm4RGJ8inhNgJNCVhhaKpcBkuAQOcC5cO6Pt15jtIjMKrA85L4o0dNXt5tC3iXpLbrZ/QECPQlcLu+0pENAQL7Cfj93g/Dl20JaBjaqpfREiDQt8D39J2e7AgMLVDe1OBbhxaQfLMCGoZmS2fgBAh0JlBe7Fye32wjQKBfAX8U6Le2XWemYei6vJIjQKAhge/MWK/X0HgNlQCB1QU0DKubOaICAQ1DBUUwBAIECETAjYRpQKB/gW9Kiv+8/zRl2JuAhqG3isqHAIEWBY7JoE9rceDGTIDAygL+OLAymQPmFtAwzF0B1ydAgMC+fQ8IwrVBECAwhMCjkqW3tR+i1P0kqWHop5YyIUCgXQF/cWy3dkZOYFWBm+SAu616kP0JzCmgYZhT37UJECCwb9/VgvAQEAQIDCXgjwRDlbv9ZDUM7ddQBgQItC3woAz/mm2nYPQECKwoUJ6W5B5sRTS7zydgss5n78oECBAoAv7SaB4QGE/gpKR8j/HSlnGrAhqGVitn3AQI9CBQVhbKCoONAIHxBL53vJRl3KqAhqHVyhk3AQI9CDw0SZTXMNgIEBhP4JFJ+Yjx0pZxiwIahharZswECPQi4OlIvVRSHgRWFzghh3zH6oc5gsD0AhqG6c1dkQABAkWgfO7Cd6EgQGBoAX80GLr87SSvYWinVkZKgEBfAg9LOuUTnm0ECIwr8PCkftS46cu8FQENQyuVMk4CBHoT8JfF3ioqHwKrC1wvh3zn6oc5gsC0AhqGab1djQABAkWg3CTcDwUBAgQi4I8HpkH1AhqG6ktkgAQIdCjwiOTkaQgdFlZKBHYh4OmJu0BzyLQCGoZpvV2NAAECRcD7r5sHBAgsBK6VL05dfONfAjUKaBhqrIoxESDQs8CJSe7ePScoNwIEVhbwtKSVyRwwpYCGYUpt1yJAgMC+fd8dBB/WZCYQILC/wEPyjQ9x3F/E11UJaBiqKofBECAwgIC/JA5QZCkSWFHgGtn/wSseY3cCkwloGCajdiECBAjsu2EM7s6BAAECBxHwx4SDoPhRHQIahjrqYBQECIwh8Kik6b+7Y9RalgRWFXhgDrjmqgfZn8AUAv6Pawpl1yBAgMBlAv6CaCYQIHAogfIahoce6kE/JzCngIZhTn3XJkBgJIGbJNm7jpSwXAkQWFnAHxVWJnPAFAIahimUXYMAAQKXfZrrYSAIECCwjcAD8ti1t3ncQwRmEdAwzMLuogQIDCjgL4cDFl3KBFYUODr7P3zFY+xOYOMCGoaNE7sAAQIE9t08BnfiQIAAgSUE/HFhCSS7TCugYZjW29UIEBhTwA3AmHWXNYHdCNwvB11/Nwc6hsCmBDQMm5J1XgIECFwpoGG40sJXBAhsL3BkHn7E9rt4lMC0AhqGab1djQCB8QRulZRvP17aMiZAYA8C/siwBzyHrl9Aw7B+U2ckQIDA/gL+j39/DV8TILCMwL2z04nL7GgfAlMIaBimUHYNAgRGFtAwjFx9uRPYncAROey7d3eoowisX0DDsH5TZyRAgMBCoDwV6daLb/xLgACBFQS+d4V97UpgowIaho3yOjkBAoMLWF0YfAJIn8AeBO6eY2+0h+MdSmBtAhqGtVE6EQECBK4i8KCr/MQPCBAgsJxA+WT4U5fb1V4ENiugYdisr7MTIDC2wI8n/S+NTSB7AgR2KfDyHPe/d3mswwisVUDDsFZOJyNAgMABAm/Id+UvhJqGA1h8Q4DADgIvyuPlsxgu2GE/DxOYREDDMAmzixAgMLCApmHg4kudwC4EnptjHpW4cBfHOoTARgQ0DBthdVICBAgcIKBpOIDDNwQIHELgT/LzxyQuPsTjfkxgFgENwyzsLkqAwIACmoYBiy5lAisIPCP7/kDikhWOsSuBSQQ0DJMwuwgBAgS+LqBpMBEIEDiYwO/nhz+SuPRgD/oZgbkFNAxzV8D1CRAYTUDTMFrF5Utge4HfysM/lvja9rt5lMB8AhqG+exdmQCBcQU0DePWXuYE9hf4r/nmifv/wNcEahTQMNRYFWMiQGAEAU3DCFWWI4FDC/ynPPSzh37YIwTqESifImgjQIAAgfkETsmlT08cN98QXJkAgYkFnpLr/crE13Q5ArsW0DDsms6BBAgQWJuApmFtlE5EoHqBf5cR/nr1ozRAAvsJaBj2w/AlAQIEZhTQNMyI79IEJhAoL2r+qcTvTHAtlyCwVgENw1o5nYwAAQJ7EtA07InPwQSqFSjNwuMS/6PaERoYgW0ENAzb4HiIAAECMwhoGmZAd0kCGxQon63wrxLP3OA1nJrARgU0DBvldXICQwr8RLIuN701b+XdSd5d8QA1DRUXx9AIrCBQPrX5sYk/W+EYuxIgQIAAga4FbpDsvpIoy+81x/MaqEJpGs6t3HGnGn844//Pifsmnt14Ljvl6vG9/86fnznyq4kHJP4wcVaiZdcLM/7vTtgIECBAgACB/QR+M1+38H/w5SkCt9tv3LV+2WLT8PFg/kbiXxwE9a75Wfn8iRbmiDFOV6fy+/gniZsk9t+OyjcPSvyvxBcTLdXkgoz3oQkbAQIECBAgsJ9AK6sLi5uOFlYZCm8LTcOnMs7yzi9lrMs81fXh2e8diUUt/DuuxcszD+6U2Gk7Jjs8LPHnifMSNc+ZslJSVklsBAgQIECAwBaBVlYXFjcarawyFOYam4bPZVxPT9wncXhi1a00Fo9OvCuxqIl/x7F4Vep+l8RutqvnoEclXpCo7SmQX86YylPwbAQIECBAgMAWgdZWFxY3pq2sMhTuGpqGszOOZyTunzgysY6tNBvl5u//JhZ18W+fFqVJ/4tEeWraurZr5kTfn3hJojwNaM6586Vc/54JGwECBAgQIHAQgdZWFxY3FS2tMhT2OZqG8tzx/514cOLoxCa378jJX5lY1Me/fViUG/k/Stwqscnt2jn5DyZOT1yUmHL+fCHXu1vCRoAAAQIECBxEoNXVhcXNREurDIV/iqahPEe8vKtRea3BsYmpt1vngv89Uf5iu6iTf9uz+ETq95TEiYmpt+vngj+a+D+JixObnD9l5e3OCRsBAgQIECBwCIFWVxcWNxCtrTKUMmyiaSgv1CzPCf+eRHmOeA3btTKIJyTemVjUy791W5Tfp79KlLcTXdfT1nKqPW3fkKN/PPG3iTK+dc6hz+V8d0jYCBAgQIAAgUMItL66sLhxaG2VoZRjHU1DearISxP/MnFcouatvE3rHyRae3vNxRzr/d+PpTa/lDg5UfN2owzuiYk3JfZak0/nHN+SsBEgQIAAAQLbCLS+urC4YWhxlaGUZTdNw0U57lWJH0pcJ9HaVlY/vi9RGp3ywViLGvp3eovyvP1nJMq7Ah2eaG27aQb8M4m/T6w6fz6ZY26ZsBEgQIAAAQLbCPSyurC4UWhxlaGUZ5mm4ZLs95rEv0kcn+hlK89Tf1yiPAVG87D6Te9i7q/yb/n08eckHpk4JtHL9s+SyC8klvl8kI9mv5v3krg8CBAgQIDAJgV6WV1Y3Cy1uspQanywpqHk87rETyRKc9f7VlZLvj/x3ES5qV3U1b97tzgznk9PPCCx6XfKyiVm38qL7p+aeE9i6/z5cH52csJGgAABAgQI7CDQ2+rC4qag1VWGUq5F0/CWfP2kxDeWHw66lb98n5oor3koN7uL+vp3eYt3x+1pibskDkuMun1rEi8OH0y8PzHy71XStxEgQIAAgeUFeltdWNxItrzKUKp3teVLOMye5Wa3/HV8UWP/7mzx2GFmx2qJ+v1azcveBAgQIDCwQK+rC4sbyZZXGQaeltumfqM8+tXEosb+PbTFu+LU4guYt50AHiRAgAABAgSmFeh1dWFxE9n6KsO0s6Gdq/1OhrqosX8PbVE+h8NGgAABAgQIENi1QO+rC4sbSasMu54i1R5oleHQTcJi3ltdqHb6GhgBAgQIEGhHoPfVhcWNk1WGdubkKiO1yrB902B1YZXZZF8CBAgQIEDgKgKjrC4smgarDFeZAs3/wCrDoRsGqwvNT28JECBAgACB+QVGWV1YNAxWGeafc5sYgVWGgzcNVhc2MduckwABAgQIDCQw2urCommwytDfJLfKcNWGwepCf/NcRgQIECBAYHKB0VYXFg2DVYbJp9okF7TKcGDTYHVhkmnnIgQIECBAoF+BUVcXFk2DVYb+5rZVhisbBqsL/c1vGREgQIAAgckFRl1dWDQMVhkmn3KTXNAqw2VNg9WFSaabixAgQIAAgX4FRl9dWDQNVhn6m+NWGfbts7rQ37yWEQECBAgQmFxg9NWFRcNglWHyqTfJBUdfZbC6MMk0cxECBAgQINCvgNWFK5/nXRoHqwz9zfWRVxmsLvQ3n2VEgAABAgQmF7C6cGDDYJVh8ik4yQVHXWWwujDJ9HIRAgQIECDQr4DVhQObhcVTk6wy9DfnR1xlsLrQ3zyWEQECBAgQmFzA6sLBGwarDJNPxUkuONoqg9WFSaaVixAgQIAAgX4FrC4cvFmwytDvnB9plcHqQr/zWGYECBAgQGAyAasL2zcMVhkmm4qTXmiUVQarC5NOKxcjQIAAAQL9CVhd2L5ZsMrQ35xfZDTCKoPVhUW1/UuAAAECBAjsWsDqwnINg1WGXU+xqg/sfZXB6kLV08/gCBAgQIBA/QJWF5ZrFqwy1D+XdzvCnlcZrC7sdlY4jgABAgSGFCh/Rf+rxL9OXH9IgSuTPjpfflfi9xKfTCxuhv27nMUbYvakxMmJ0bc7BOBXE+9InNIwRq+rDFYXGp6Uhk6AAAEC0wr8Vi63/83wRfn+9MQPJq6TGGG7dpL83sSzE19M7O/h6917vDWWP5/45sQo222S6C8l3pfYf+58Kd+32jT0uMpgdSET0kaAAAECBJYR2Nos7H+DU76+IPHixPcnjkv0tJ2QZB6feFXiwsTW3H2/XpN3xvipiVsnettKQ/QfEv+U2G7elKbh7okWt95WGawutDgLjZkAAQIEJhfYqVnYeuNzfkb4/MSjEleffLTrueA1c5p/mSgrKGUlZWuOvp/G5G2xf3Ki/OW61e1mGfjPJv4hscq8aXWloadVBqsLrf7WGTcBAgQITCqwarOw9YbovIz2zxMPSxwz6ch3d7F75bBnJb6c2JqL7+czuST1eHXiMYljE7Vv35gB/nTiLYm9zJtWm4ZeVhmsLtT+m2Z8BAgQIDC7wF6bha03Sl9MRuVm/IGJo2bP7soBnJgvy/PnP5DYOmbf12dyTur0+4lvS9S0lXfK+onE6xLlrWPXNXdabBp6WGWwupBJbCNAgAABAtsJrLtZ2HrzdHYu/oeJ70wcsd1ANvjYXXLu/50or7/YOj7ft2Hy5tTusYm5Vh2Oz7X/TeI1ibIKsql502LT0Poqg9WFTGgbAQIECBA4lMCmm4WtN1WfzUDKX4zvlTj8UINa089Lc/LoxN8lto7D9+2afD71fFripMSmt+vmAj+UKC+Cvygx1bxprWloeZXB6kImto0AAQIECBxKYOpmYevN1pkZWBnDtycOO9Qgd/Hz8hfo8k5HH0xsvabv+zEpq0V/nLhtYp1beeev8iL4lybmXJFqrWlodZXB6sI6f3uciwABAgS6Epi7Wdh64/6x6P564p/vQbk0Ck9MfDqx9fy+79vkJan5nRK73co7fJUbxxcmzk/UMl9aahpaXGWwupDJbiNAgAABAgcTqK1Z2Hpz9qEMujzl5FsPNviD/Ky8I1N5AWpZsdh6Lt+PZfKyzIFlm87SYD488ezElxO1zpWWmobWVhmsLmTi2wgQIECAwFaB2puFrTdt700C/zFxm62J5PvyNKbvS5yR2Hqc78c2eX7mxD9LbN2Ozg8enCgvgD830co8aaVpaGmVwepCfgFsBAgQIEBgq0BrzcLWm7l3JqGnJG6RuHtir+97v/X8vm/nBnqZWpVP6i5zvrwF6v0Tz0iUt2ld5tga92mlaWhllcHqQn4ZbAQIrFdgnS/IXO/InI3AcgLlxuknl9vVXgQIVCpQPhzxAYk3VDq+MqyyyvCXibneQrmMYaftE9mhNJHlMzRsBAgQWJuAhmFtlE40g4BmYQZ0lySwIYEWmoYNpe60BAgQqFtAw1B3fYzu0AKahUPbeIRAqwKahlYrZ9wECHQtoGHourzdJqdZ6La0EiOwT9NgEhAgQKAyAQ1DZQUxnB0FNAs7EtmBQPMCmobmSygBAgR6EtAw9FTN/nPRLPRfYxkSWAhoGhYS/iVAgMDMAhqGmQvg8ksLaBaWprIjgW4ENA3dlFIiBAi0LHB4y4M39mEENAvDlFqiBA4QuGa+Oz1xygE/9Q0BAgQITCpghWFSbhfbhYBmYRdoDiHQmUD5cLdTEzV/TkNn5NIhQIDAlQIahistfFWfgGahvpoYEYG5BDQNc8m7LgECwwtoGIafAtUCaBaqLY2BEZhNQNMwG70LEyAwsoCGYeTq15u7ZqHe2hgZgbkFNA1zV8D1CRAYTkDDMFzJq09Ys1B9iQyQwOwCmobZS2AABAiMJKBhGKna9eeqWai/RkZIoBYBTUMtlTAOAgS6F9AwdF/iZhLULDRTKgMlUI2ApqGaUhgIAQI9C2gYeq5uO7k9NkN9VjvDNVICBCoS0DRUVAxDIUCgTwEf3NZnXVvL6h9bG7DxEiBQjcBxGcnvVjMaAyFAgECHAhqGDovaYErvyJg/3OC4DZkAgToEXl7HMIyCAAECfQpoGPqsa4tZvbDFQRszAQJVCDynilEYBAECBDoV0DB0WtgG09IwNFg0QyZQgcB7MoZ3VjAOQyBAgEC3AhqGbkvbXGJvzog/1dyoDZgAgbkFnj33AFyfAAECvQtoGHqvcDv5fS1DfVE7wzVSAgQqEXhuJeMwDAIECHQroGHotrRNJuZpSU2WzaAJzCbw9lz5vbNd3YUJECAwiICGYZBCN5LmazPOcxoZq2ESIDC/gBc7z18DIyBAYAABDcMARW4oxYsz1pc2NF5DJUBgXgFPR5rX39UJEBhEQMMwSKEbStPTkhoqlqESmFHgrbn2h2a8vksTIEBgGAENwzClbibRv8xIv9zMaA2UAIG5BDwdaS551yVAYDgBDcNwJa8+4fMzwldWP0oDJEBgToHyrmqejjRnBVybAIGhBDQMQ5W7mWQ9LamZUhkogVkE3pSrfmyWK7soAQIEBhTQMAxY9AZSfnnGeGED4zREAgTmEfB0pHncXZUAgUEFNAyDFr7ytL+Y8b2m8jEaHgEC8whcmss+f55LuyoBAgTGFNAwjFn3FrL2tKQWqmSMBKYXeF0ueeb0l3VFAgQIjCugYRi39rVn/uIMsPwl0UaAAIH9BTwdaX8NXxMgQGACAQ3DBMgusSuBz+aoN+zqSAcRINCrwCVJ7AW9JicvAgQI1CqgYai1MsZVBDwtyTwgQGB/gb/ON+WPCTYCBAgQmFBAwzAhtkutLPAXKx/hAAIEehZ4ds/JyY0AAQK1ChxW68CMi8DlAn+ff+9IgwCB4QUuisANEmcPLwGAAAECEwtYYZgY3OVWFvC0pJXJHECgS4FXJyvNQpellRQBArULaBhqr5DxaRjMAQIEioB3RzIPCBAgMJOApyTNBO+yKwm8N3vfcqUj7EyAQE8CFySZb0iUD3W0ESBAgMDEAlYYJgZ3uV0JWGXYFZuDCHQj8MpkolnoppwSIUCgNQENQ2sVG3O8GoYx6y5rAgsBT0daSPiXAAECMwh4StIM6C65K4GP5agb7+pIBxEg0LLA+Rn8iYnzWk7C2AkQINCygBWGlqs31th9JsNY9ZYtgYXAy/KFZmGh4V8CBAjMIKBhmAHdJXcl4GlJu2JzEIHmBTwdqfkSSoAAgdYFPCWp9QqOM/4jkuqnEieMk7JMCQwvUFYWytORytOSbAQIECAwk4AVhpngXXZlgUtyxEtWPsoBBAi0LFB+5zULLVfQ2AkQ6EJAw9BFGYdJwtOShim1RAl8XcDTkUwEAgQIVCDgKUkVFMEQlhY4Ont+LnGtpY+wIwECrQqUz10oH9ZWPrTNRoAAAQIzClhhmBHfpVcWuDBHvGLloxxAgECLAi/KoDULLVbOmAkQ6E5Aw9BdSbtPyNOSui+xBAl8XcDTkUwEAgQIVCLgKUmVFMIwlha4ZvYsT0s6dukj7EiAQGsCZ2XAJyUuam3gxkuAAIEeBaww9FjVvnMqb7P46r5TlB2B4QXKSqJmYfhpAIAAgVoENAy1VMI4VhH4m1V2ti8BAs0JeDpScyUzYAIEehbwlKSeq9tnbuUD3N6ZuHWf6cmKwPACX4vADRKfHV4CAAECBCoRsMJQSSEMY2mBH8memoWluexIoDmB8oespzQ3agMmQIBAxwJWGDouboeplRc8fzBR3pvdRoBAvwLl9Qu3Tby/3xRlRoAAgXYErDC0Uysj3bfvSUHQLJgJBPoXOCop/pf+05QhAQIE2hCwwtBGnYxy375rB+GMxHVgECAwjMC3J9M3DZOtRAkQIFCpgBWGSgtjWFcR+Kn8RLNwFRY/INC1wC91nZ3kCBAg0IiAFYZGCjX4MK+V/M9IXHdwB+kTGCTjf6kAACVFSURBVFHgnkn6dSMmLmcCBAjUImCFoZZKGMd2Aj+WBzUL2wl5jEC/Av+x39RkRoAAgTYErDC0UaeRR3l0kv9I4oYjI8idwOACXssw+ASQPgEC8wocOe/lXZ3AjgKPyR6ahR2Zmt2hfEjXZxJnXB7lw7rOujzOz78XJC5MlA/sK83jMYnjEtdPHJ8oH/B1s8TJifJzW58CP5u0HtZnarIiQIBA/QJWGOqv0egjfEcAbjc6Qif5X5I83p4o73rzj4lS23clvpxYx1becvf2l8cd8+8piZsmbO0LlMbyNon3tp+KDAgQINCegIahvZqNNOL7Jtm/GinhDnN9d3J6ZeJViTcmzktMud0oF7t34tTEdyXKqoStTYFnZNj/qs2hGzUBAgQIECCwKYEX5MTlL4uiLYO/T81+LvFNiZq28iYPd0/8TuJTCfOqLYPyFDUNXxBsBAgQIECAwGUC5XULFyXc1LVh8PnU6jcT35JoYSvNQ1l1+IuEedbGHCv/LSiNqI0AAQIECBAg8HWBp+Z/NQv1G7wzdfrhRHkxcqvbSRn40xJnJ8y5ug0+mhqVF8DbCBAgQIAAgcEFyl9/P5Fw81avwVtSn/IX+p62aySZn058JmHu1WtwWk+TTi4ECBAgQIDA7gQekMPcsNVpUN7l6EG7K2szR5XGoTz15ZyEeVifwcuamUkGSoAAAQIECGxM4Lk5sxu1ugzKX91/NDHS00HKC2yfnihvB2s+1mNwcerhs1mCYCNAgAABAqMKXC+Jlw/rcoNWh8GlqcUfJK6dGHX7tiRe3vnJnKzH4N+POhnlTYAAAQIECOzb9+NBcGNWh8H7U4t7mJRfFygrKz+TKG/taX7Ob/CBr1fF/xAgQIAAAQJDCrwhWbshm9/gf6QO5bn8tgMFbptvyztDmaPzG9z1wNL4jgABAgQIEBhB4GZJ0o3YvAZfTA0ePsJk20OOx+bY30uYq/Ma/PYeauhQAgQIECBAoFGBX8i43YTNZ/CO+N+i0bkzx7B/IBf1FKX55mt5If5IL8KfY467JgECBAgQqE7AUz3mu/l6cWaDpyCt/itxpxxyZkKjO4/B/VcvmSMIECBAgACBVgW+OQN30zWPwW/GvnxYnm13AjfJYe9KmL/TG5R38LIRIECAAAECgwj8fPJ0wzW9QXnnH9veBa6TU7wxYQ5Pa1BWdw7be/mcgQABAgQIEGhB4K0ZpJut6QzK5ys8voWJ0dAYr5mx/nXCPJ7WwLslNfRLYqgECBAgQGC3AjfNgW6ypjX40d0Wy3HbClwtj74mYT5PZ/Cr21bEgwQIECBAgEAXAk9KFm6wpjP4yS5mTb1JlJWGN5vTk/1Ov6feqWBkBAgQIECAwLoEfFjbdM3Cf1xX0ZxnW4Hr5lEvhJ5uXpc3TbARIECAAAECnQqclLzK8+mtMGze4FmdzqFa0zo5AyufFWBub97Ai/dr/S0wLgIECBAgsEeBb83xr0y4odq8wd/G+ag91svhqwvcJYd8NWGOb9agrFLaCBAgQIAAgY4ESqPwwoSVhc3eRC1uUj8R62/oaP60lsqPZMCLWvh3MxblvyXPT9yutclhvAQIECBAgMCBAhqFzdwsbXcTemFK4G0nD5yHc3z3R7nodnXy2Hp8Fo3D7ecosmsSIECAAAECuxfQKKznZmg3N5U/t/uyOXKNAuXtVsu7+eymho5Z3W3ROFhxWOMkdioCBAgQILAJAY3C6jc667w5fE2KevgmCuucuxK4Y44qKz7rrLFzbe+5aBysOOxqyjqIAAECBAhsTkCjsP1NzBQ3eV9KeW+6uRI78y4FnpLjpqi/axzovGgcrDjscuI6jAABAgQIrEtAo3DgTcqcN21PWFdRnWetAuWdqt6ZmHNujHxtjcNap7OTESBAgACB5QU0CnXdAL4lpfNUpOXn79R73i0XLDeuI9+4z537onHwVKWpZ7/rESBAgMBwAhqF+m76yo1Qee9/W90Cz8zw5r5pdv3LGjdvx1r374rRESBAgECjAhqFem/2fJpzG79UN8wwz0u4aa/DYLHi4DUObfz+GCUBAgQIVCygUajj5uZQN5nlE4VvXPH8MbQDBZ6abw9VSz+fx0bjcOAc9R0BAgQIEFhaQKMwz83LqjeNv7V0Re1Yg8C1M4izE6vW2f6bN9M41PAbYgwECBAg0ISARmHzNybruvk7PzPqBk3MKoPcX8DbrNb9O7ZoHLw4ev9Z62sCBAgQIBABjULdNzEHazKebuY2KVBWGc5NHKymflaPy6Jx8BqHJn/NDJoAAQIE1imgUajnBmWVm8VLMglusc6J4FyTCvxmrrZKve07n5fGYdJfDRcjQIAAgZoENArz3YCs4+bvJTVNJmNZWeBmOaI0feuYC84xjeOicfBUpZWnuwMIECBAoDUBjcI0Nxebvol7cGsTz3ivInB6frLpeeL86zdeNA6eqnSVKe0HBAgQINC6gEZh/TcOc92MfTyT8YjWJ6Tx73tkDOaaQ667d3uNg19iAgQIEOhK4NhkU/7PzU1CHwb/uavZOW4yRyX1z/u9bP6/S4vG4VvGncoyJ0CgR4HDe0xKTtsKHJZHS9j6EHhOH2kMn8VFEfiL4RXaByj/bS2rRf++/VRkQIAAgSsFNAxXWviKQGsC78+A39baoI33kALPPeQjHiBAgAABAjMKaBhmxHdpAnsU8O5IewSs7PC/zni+UNmYDIcAAQIECOzTMJgEBNoVKO+sY+tH4OKk8lf9pCMTAgQIEOhFQMPQSyXlMZrAeUn49aMlPUC+rxwgRykSIECAQGMCGobGCma4BC4XeGP+vZBGdwKv6S4jCREgQIBA8wIahuZLKIFBBd4waN69p/2RJPip3pOUHwECBAi0JaBhaKteRktgIaBhWEj096/a9ldTGREgQKBpAQ1D0+Uz+IEF/mHg3HtP/a29Jyg/AgQIEGhLQMPQVr2MlkAR+ETiHBTdCryz28wkRoAAAQJNCmgYmiybQQ8u4Iay7wmgvn3XV3YECBBoTkDD0FzJDJjAvg8w6Frg48nuK11nKDkCBAgQaEpAw9BUuQyWwNcFyjvp2PoW+Gjf6cmOAAECBFoS0DC0VC1jJXCZwBkguhfQFHZfYgkSIECgHQENQzu1MlICCwHv07+Q6PffM/tNTWYECBAg0JqAhqG1ihkvgX37Pg+he4Gzus9QggQIECDQjICGoZlSGSiBKwTcTF5B0e0XatxtaSVGgACB9gQ0DO3VzIgJfAlB9wLndp+hBAkQIECgGQENQzOlMlACXxe4JP9bwta3wAV9pyc7AgQIEGhJQMPQUrWMlcC+fRdCGEJAnYcosyQJECDQhoCGoY06GSWBhcCliy/827WAOnddXskRIECgLQENQ1v1MloCRyMYQkCdhyizJAkQINCGgIahjToZJYGFwFH54rDFN/7tVkDD0G1pJUaAAIH2BDQM7dXMiAlcDUH3AlfvPkMJEiBAgEAzAhqGZkploASuELj+FV/5olcBNe61svIiQIBAgwIahgaLZsjDC7iZ7H8KqHH/NZYhAQIEmhHQMDRTKgMlcIXAiVd85YteBdS418rKiwABAg0KaBgaLJohDy9w8vAC/QOocf81liEBAgSaEdAwNFMqAyVwhcDJV3zli14F1LjXysqLAAECDQpoGBosmiEPL3Dz4QX6Bjgu6Z3Qd4qyI0CAAIGWBDQMLVXLWAlcJnBbEF0LqG/X5ZUcAQIE2hPQMLRXMyMm8M0hOAZDtwK36zYziREgQIBAkwIahibLZtCDCxyZ/P0Vut9JcId+U5MZAQIECLQooGFosWrGTGDfvrtB6Fbg27vNTGIECBAg0KSAhqHJshk0gX2nMOhSoLzg2VOSuiytpAgQINCugIah3doZ+dgC9xg7/W6zv3sy89/lbssrMQIECLQp4P+Y2qybURO4UQj8Jbq/efBd/aUkIwIECBBoXUDD0HoFjX9kgQeMnHynuatpp4WVFgECBFoW0DC0XD1jH13gwaMDdJb/LZLPLTvLSToECBAg0IGAhqGDIq6YwiXZ/8wVj7F7nQLl+e4n1Tk0o9qFwKN3cYxDCBAgQIDAxgU0DBsnru4CF2ZEN0/8ZELjUF15VhpQ+f397pWOsHPNAhqGmquz/Ni+kl1ft/zu9iRAgAABAnULHJvhPSHxycTXRJMGf5e62doXuH1S8DvYtsGXU8NfS5zY/nSUAQECBAgQuKqAxqHtG5Vys2lrW+C3M3wNQ5sGGoW2f/eMngABAgRWFNA4tHnD8jsr1tnudQmU37uzExqGtgw0CnX9HhkNAQIECEwsoHFo68bl3MyPa088R1xufQL/OqfSLLRjoFFY39x3JgIECBDoQEDj0M5NzJM7mG8jpnBYkn53QsNQv4FGYcTfUDkTIECAwNICGof6b2Y+nmoevXRF7ViLwEMyEM1C3QYahVp+W4yDAAECBJoQ0DjUfWPzY03MIoPcX+Ct+UbDUKeBRmH/meprAgQIECCwooDGoc4bnE+kjsesWEu7zydwWi6tWajPQKMw3++EKxMgQIBAhwIah/pudryWoY1ftCMyzH9KaBjqMdAotPG7Y5QECBAg0KiAxqGem54vZA6d0Og8GmnY5eljmoU6DDQKI/3myZUAAQIEZhfQONRxA/QHs88EA9hO4Lp58HMJDcO8BhqF7WapxwgQIECAwIYFNA7z3ghdmvqesuEaO/3uBf4oh2oW5jPQKOx+7jqSAAECBAisXUDjMN9N0btSTW+zuvYpvecT3jtn0CzMY6BR2PP0dQICBAgQILA5AY3DPDdIT9tcSZ15FwLXzDEfSmgYpjXQKOxisjqEAAECBAjMJaBxmPZG6ZIU+h5zFdt1ryLwjPxEszCdgUbhKlPQDwgQIECAQDsCGofpbprOyLQoL7K1zSvwqFxeszCNgUZh3rnu6gQIECBAYK0CpXEoT5txI7VZg5fH+LC1Vs7JVhG4VXY+N2Geb9ZAo7DKrLQvAQIECBBoSOC4jPWrCTdTmzX4fxuaEz0Ntbxu4V3m98Z/vz8e4xN7mjhyIUCAAAECBA4UeEW+1TBs1qC81eqjDmT33YYFyqc5vyxhbm/e4Hc2XEunJ0CAwNAChw+dveRrEXhxLQPpeBzlKUn/K3HXjnOsLbX/lgE9qLZBdTqeF3Wal7QIECBAgACBywVOyr/lL+D+Ert5g8/H+Vsud/fP5gR+Iac2n6cxOCfWR22ulM5MgAABAgQI1CLw5gzEDdY0BmfG+ua1FL7DcTzBXJ70d/lPOpxDUiJAgEBVAp6SVFU5hh6MpxRMV/6yovOahKZh/eY/llP+1vpP64zbCHhK4zY4HiJAgAABAj0J3DrJWGGY1uCTMS/utvUI/Nucxhye1qC8w1p5pzUbAQIECBAgMIjA+5KnG65pDT4Xcy+E3tsvWHlBuc8TmXbeLv47Ud5hzUaAAAECGxbwlKQNAzv9SgLPXWlvO69D4PicpDw96eHrONmA5zg6OZfn0P/8gLnXkLKnMtZQBWMgQIAAAQITCnha0jx/pS1/rb0k8ZSET4RefsKX14K8IbH4a7d/p7W4MPbXX75c9iRAgAABAgR6EfiHJOLGaz6D8hfba/UymTaYxyk5d3m3KXN1PoPyoXg2AgQIEJhAwFOSJkB2iZUE/mylve28boHTcsJ/TNxt3Sfu5Hzlv5llJea1ibLCYJtP4E/nu7QrEyBAgAABAnMKlJuwixL+cjuvQanBLyZ8IFYQLt++Kf/+bcLcnN/gvNTh6pfXxT8ECBAgQIDAgAIvSc5uyuoweHtqcecB5+D+KZdVhZ9OfDlhXtZh8Iz9C+RrAgQIECBAYDyB8rQYN2b1GFycevxu4nrjTcV9356c35owH+syKK8hsREgQIAAAQIDCxyZ3D+dcJNWl8FZqclPJMpbifa+3TQJlufIm4P1Gby398knPwIECBAgQGA5gV/Obm7W6jQ4I7X54cQRid62Gyah/564IGH+1Wnw73qbdPIhQIAAAQIEdifwjTnMi5/rvGFb3Eh/JDX6ycQ1dlfiqo66VUbzPxNfTSzy8299FuenPscnbAQIECBAgACBrws8P//rpq1+g7NTp99IlA/ea2krT317WOIViUsT5lr9Bs9MnWwECBAgQIAAgSsE7pWv3MS1ZfC61OzxiROvqGJ9X5R3ffq1hA9ea2tulf8W3Km+6WREBAgQ6F/gsP5TlGHjAuUdatwktFfESzLk1yZenjg9MecLVY/J9e+ZODXx0MTNE7b2BN6cIftAwfbqZsQECHQgoGHooIidp/Do5PecznMcIb2PJcnXJ96QeFPi3YnywuJNbOU57ndMlLfeLFFuMn3IVxAa3x6Z8b+w8RwMnwABAk0KaBiaLNtQgy7vxPO+hL8K91X28tkOpa7/lPjI5fHR/Pu5RHn71hLlBa5lpWL/rbyl63GJ6ydKY3CDxM0SJydukbh94qSErS+B9yed8hqZ8loTGwECBAhMLKBhmBjc5XYl8Lgc9fu7OtJBrQuUhuHCRGkcj0r4b1YQBtx+NDmXd7GyESBAgMAMAv7PdwZ0l1xZoPxV+YOJG698pAMIEGhd4FNJ4GaJC1pPxPgJECDQqsDhrQ7cuIcSKH9h/pWhMpYsAQILgV/NF5qFhYZ/CRAgMIOAFYYZ0F1yVwLl6Sjlecwn7+poBxEg0KLAJzLof5bQMLRYPWMmQKAbASsM3ZSy+0QuSoa/1H2WEiRAYH+Bp+UbzcL+Ir4mQIDADAJWGGZAd8ldC5QG922J8k44NgIE+hb4cNIr74xUnpJoI0CAAIEZBawwzIjv0isLlLdUfPLKRzmAAIEWBX4ug9YstFg5YyZAoDsBKwzdlXSIhMonBz9giEwlSWBMgfLhft8+ZuqyJkCAQH0CVhjqq4kR7SzwNzvvYg8CBBoW+LcNj93QCRAg0J2AhqG7kg6R0GlDZClJAuMKfGbc1GVOgACB+gQ0DPXVxIi2F7hhHr7L9rt4lACBxgW+u/HxGz4BAgS6EtAwdFXOIZJ5WLL02pshSi3JgQUeOXDuUidAgEB1AhqG6kpiQDsIPGKHxz1MgED7Av88Kdy4/TRkQIAAgT4ENAx91HGULK6XRO81SrLyJDCwQFlFtMow8ASQOgECdQloGOqqh9FsL/CQPHzk9rt4lACBTgS8jqGTQkqDAIH2BTQM7ddwpAw8HWmkast1dIG7BeCk0RHkT4AAgRoENAw1VMEYlhG4Rna6/zI72ocAgS4Eyv8/+SNBF6WUBAECrQtoGFqv4DjjPzWpHjtOujIlQCACXsdgGhAgQKACAQ1DBUUwhKUE/KVxKSY7EehK4J7J5viuMpIMAQIEGhTQMDRYtAGHfHRyftCAeUuZwOgCRwTg4aMjyJ8AAQJzC2gY5q6A6y8jcN/sdK1ldrQPAQLdCXhaUncllRABAq0JaBhaq9iY4/V0pDHrLmsCReA7EtdFQYAAAQLzCWgY5rN35eUEyhw9bbld7UWAQIcCRyWnh3aYl5QIECDQjICGoZlSDTvQuyfzE4bNXuIECBQBH+JmHhAgQGBGAQ3DjPguvZSApyMtxWQnAl0LfGeyO67rDCVHgACBigU0DBUXx9C+LuAdUkwEAgSOCcGDMRAgQIDAPAIahnncXXU5gTtlt5sst6u9CBDoXMDTkjovsPQIEKhXQMNQb22MbN8+T0cyCwgQWAg8IF9cffGNfwkQIEBgOgENw3TWrrS6gIZhdTNHEOhVoDQLD+w1OXkRIECgZgENQ83VGXtst0r6JWwECBBYCPgQt4WEfwkQIDChgIZhQmyXWknA6sJKXHYmMITAg5LlsUNkKkkCBAhUJKBhqKgYhnKAgIbhAA7fECAQgfLWqvcnQYAAAQLTCmgYpvV2teUEyjsjlXdIshEgQGCrgHdL2iriewIECGxYQMOwYWCn35WAz17YFZuDCAwh8JBkedQQmUqSAAEClQhoGCophGEcIODpSAdw+IYAgf0ErpOv77vf974kQIAAgQ0LaBg2DOz0KwuckCPuvvJRDiBAYCQBT0saqdpyJUBgdgENw+wlMIAtAqfle/NyC4pvCRA4QKD8d+KIA37iGwIECBDYmIAbs43ROvEuBTwdaZdwDiMwkMDxyfXeA+UrVQIECMwqoGGYld/FtwhcK997bvIWFN8SIHBQAR/idlAWPyRAgMD6BTQM6zd1xt0LlA9lOnr3hzuSAIGBBMq7qfn/sIEKLlUCBOYT8B/b+exd+aoCno50VRM/IUDg4AI3yI9POfhDfkqAAAEC6xTQMKxT07n2InBsDj51LydwLAECwwl4WtJwJZcwAQJzCGgY5lB3zYMJ3D8/vMbBHvAzAgQIHEKgNAyHHeIxPyZAgACBNQloGNYE6TR7FvB0pD0TOgGB4QS+MRn/i+GyljABAgQmFtAwTAzucgcVODI/fchBH/FDAgQIbC/gQ9y29/EoAQIE9iygYdgzoROsQeBeOcf11nAepyBAYDwBr2MYr+YyJkBgYgENw8TgLndQgfKJrRcf9BE/JECAwPYCF+Th8qYJNgIECBDYkICGYUOwTruSwF9m78ckNA0rsdmZwPACH4xA+bDHrw4vAYAAAQIbFCh/2bURqEHg3RnEexM+jKmGahgDgfoFzsgQ7534ZMJGgAABAhsU0DBsENepVxbQNKxM5gACQwp8PFnfJ/HRIbOXNAECBCYW0DBMDO5yOwpoGnYksgOBoQU+lexLs/ChoRUkT4AAgQkFNAwTYrvU0gKahqWp7EhgKIHPJtvvSLxvqKwlS4AAgZkFNAwzF8DlDymgaTgkjQcIDClwVrK+b+JdQ2YvaQIECMwooGGYEd+ldxTQNOxIZAcCQwh8IVneL/H2IbKVJAECBCoT0DBUVhDDuYqApuEqJH5AYCiBc5Pt/RN/P1TWkiVAgEBFAhqGiophKIcU0DQcksYDBLoWOC/ZnZp4c9dZSo4AAQKVC2gYKi+Q4V0hoGm4gsIXBIYQOD9ZPjjxuiGylSQBAgQqFtAwVFwcQ7uKgKbhKiR+QKBLgfLJzaclXtNldpIiQIBAYwIahsYKZrj7NA0mAYG+BS5Meo9IvKrvNGVHgACBdgQ0DO3UykivFNA0XGnhKwI9CVycZB6deGlPScmFAAECrQtoGFqv4Ljj1zSMW3uZ9ylwSdL6/sQL+kxPVgQIEGhXQMPQbu2MfJ+nJ5kEBDoRuDR5/GDizzvJRxoECBDoSkDD0FU5h0yml5WG8iLPVyTKe87faMhKSnoVgfLUnecmyn/DT1jlwAr3/VrG9K8Tz6pwbIZEgAABAgQIdCTwqORyUaLcfLQSX8xYy19Uy9ivkSjbYYnHJM5ItJKHcU5bqxdnbtwysdhuny9+JfGBRIu1eNwiEf8SIECAAAECBDYt0ELT8Nkg/M/EAxNHbwNybB77mcRZiRZvAo15/XUrH152r8R2253y4H9NnJFooQY/lXHaCBAgQIAAAQKTCtTYNHw0Ar+VKDd7qz4N8Fo55v9NnJNo4QbQGNdfp7em9g9KrLrdLQf8t8QnEjXWpTTENgIECBAgQIDALAI1NA3vSeZPS9x5TQLXyXmemrDiUOfN7yZuyP8u9S4fXrbXrTzN7Z6J/574dGITY131nP8h47ARIECAAAECBGYVmKNpKH8J/oXErTeYeXmtQ3kaR1m1WPUmzf5tmJ2e2t47sYmtrHDdN/E/Ep9PzDEnfjnXtREgQIAAAQIEqhDYdNNQ3jf+bxNPTNx04oyPzPW+L/HGxBw3fa65XvevpI5/mCgvYJ5qK3PoAYlnJr6QmKKmv5br2AgQIECAAAECVQmsu2m4INmVvwCXt4E8sZJM75hx/HHi/MQUN32usT7nD6dmT05cLzHnVl6A/9DEnya+lNhEjX8757URIECAAAECBKoU2GvTcF6yen6ivN1peRFyrdt1M7AfT/xDYhM3fM65HtfymRvl7XS/M1FeX1DbdrUM6JGJ5yXKysc66v70nMdGgAABAgQIEKhaYNWm4exk86xEedFpuYFqbfu2DLi8M1MtL3Jdx01n6+d4S+rxhMTcqwkZwtJbec1MeerbixKl0dlNDf44x9XYGGVYNgIECBAgQIDAgQI7NQ1nZvffS9wvUZ7f3cNWXuR6/0Rpfr6Y2M0Nn2N271beLau8I9DNE61vZXXtsYmXJy5MLDMvylOcDk/YCBAgQIAAAQLNCGxtGj6YkZcXYpb3rO/9r6DleerlRa7l6SGlOVrmhs8+qzldGteykvDzidsket3KKsmPJF6duDhxsHlSntJUGlYbAQIECBAgQKA5gfL87Kcmbt/cyNc34NIc3SXxtMS7Ewe74fOz5VwWL4R/XBxPSoy2nZCEH594baK8c1iZNy9OHJWwESBAgAABAgQIdCJwi+RRVlo0CcsbfCZej04cl7BdJlAaph9KlNUsGwECBAgQIECAQGcC5bnm/5TQNCxn8KTO6i8dAgQIECBAgAABAjsKlL+Yaxh2NijvPnX1HTXtQIAAAQIECBAgQKAzAasMOzcLpaGyutDZxJcOAQIECBAgQIDA8gJWGbZvGqwuLD+X7EmAAAECBAgQINChgFWG7RsGqwsdTnopESBAgAABAgQIrCZgleHgTYPVhdXmkb0JECBAgAABAgQ6FbDKcPCGwepCpxNeWgQIECBAgAABAqsLWGU4sGmwurD6HHIEAQIECBAgQIBAxwJWGQ5sGKwudDzZpUaAAAECBAgQILA7AasMlzUNVhd2N38cRYAAAQIECBAg0LmAVYbLGgarC51PdOkRIECAAAECBAjsXmD0VQarC7ufO44kQIAAAQIECBAYQGD0VQarCwNMcikSIECAAAECBAjsTWDUVQarC3ubN44mQIAAAQIECBAYRGDUVQarC4NMcGkSIECAAAECBAjsXWC0VQarC3ufM85AgAABAgQIECAwkMBoqwxWFwaa3FIlQIAAAQIECBBYj8AoqwxWF9YzX5yFAAECBAgQIEBgMIFRVhmsLgw2saVLgAABAgQIECCwPoHeVxmsLqxvrjgTAQIECBAgQIDAgAK9rzJYXRhwUkuZAAECBAgQIEBgvQK9rjJYXVjvPHE2AgQIECBAgACBQQV6XWWwujDohJY2AQIECBAgQIDA+gV6W2WwurD+OeKMBAgQIECAAAECAwv0tspgdWHgySx1AgQIECBAgACBzQj0sspgdWEz88NZCRAgQIAAAQIEBhfoZZXB6sLgE1n6BAgQIECAAAECmxNofZXB6sLm5oYzEyBAgAABAgQIENjX+iqD1QWTmAABAgQIECBAgMCGBVpdZbC6sOGJ4fQECBAgQIAAAQIEikCrqwxWF8xfAgQIECBAgAABAhMJtLbKYHVhoonhMgQIECBAgAABAgSKQGurDFYXzFsCBAgQIECAAAECEwu0sspgdWHiieFyBAgQIECAAAECBIpAK6sMVhfMVwIECBAgsKTAYUvuZzcCBAgsK3Dj7HjSsjvPtN/bc90LZrq2yxIgQIAAAQIECBAgQIAAAQIECBAgQIAAAQIECBAgQIAAAQIECBAgQIAAAQIECBAgQIAAAQIECBAgQIAAAQIECBAgQIAAAQIECBAgQIAAAQIECBAgQIAAAQIECBAgQIAAAQIECBAgQIAAAQIECBAgQIAAAQIECBAgQIAAAQIECBAgQIAAAQIECBAgQIAAAQIECBAgQIAAAQIECBAgQIAAAQIECBAgQIAAAQIECBAgQIAAAQIECBAgQIAAAQIECBAgQIAAAQIECBAgQIAAAQIECBAgQIAAAQIECBAgQIAAAQIECBAgQIAAAQIECBAgQIAAAQIECBAgQIAAAQIECBAgQIAAAQIECBAgQIAAAQIECBAgQIAAAQIECBAgQIAAAQIECBAgQIAAAQIECBAgQIAAAQIECBAgQIAAAQIECBAgQIAAAQIECBAgQIAAAQIECBAgQIAAAQIECBAgQIAAAQIECBAgQIAAAQIECBAgQIAAAQIECBAgQIAAAQIECBAgQIAAAQIECBAgQIAAAQIECBAgQIAAAQIECBAgQIAAAQIECBAgQIAAAQIECBAgQIAAAQIECBAgQIAAAQIECBAgQIAAAQIECBAgQIAAAQIECBAgQIAAAQIECBAgQIAAAQIECBAgQIAAAQIECBAgQIAAAQIECBAgQIAAAQIECBAgQIAAAQIECBAgQIAAAQIECBAgQIAAAQIECBAgQIAAAQIECBAgQIAAAQIECBAgQIAAAQIECBAgQIAAAQIECBAgQIAAAQIECBAgQIAAAQIECBAgQIAAAQIECBAgQIAAAQIECBAgQIAAAQIECBAgQIAAAQIECBAgQIAAAQIECBAgQIAAAQIECBAgQIAAAQIECBAgQIAAAQIECBAgQIAAAQIECBAgQIAAAQIECBAgQIAAAQIECBAgQIAAAQIECBAgQIAAAQIECBAgQIAAAQIECBAgQIAAAQIECBAgQIAAAQIECBAgQIAAAQIECBAgQIAAAQIECBAgQIAAAQIECBAgQIAAAQIECBAgQIAAAQIECBAgQIAAAQIECBAgQIAAAQIECBAgQIAAAQIECBAgQIAAAQIECBAgQIAAAQIECBAgQIAAAQIECBAgQIAAAQIECBAgQIAAAQIECBAgQIAAAQIECBAgQIAAAQIECBAgQIAAAQIECBAgQIAAAQIECBAgQIAAAQIECBAgQIAAAQIECBAgQIAAAQIECBAgQIAAAQIECBAgQIAAAQIECBAgQIAAAQIECBAgQIAAAQIECBAgQIAAAQIECBAgQIDALAL/P8TS6rvfvhecAAAAAElFTkSuQmCC;" vertex="1" parent="1">
          <mxGeometry x="21.37" y="-168.21" width="40" height="40" as="geometry" />
        </mxCell>
        <mxCell id="nBPd2E6_pD8OVz0HcGxl-22" value="" style="verticalLabelPosition=bottom;verticalAlign=top;html=1;shape=mxgraph.basic.drop;strokeColor=none;fillColor=#FFFFFF;gradientColor=#FFB366;gradientDirection=radial;" vertex="1" parent="1">
          <mxGeometry x="56.120000000000005" y="-97.63" width="5.25" height="13" as="geometry" />
        </mxCell>
        <mxCell id="nBPd2E6_pD8OVz0HcGxl-23" value="" style="group;strokeColor=none;" vertex="1" connectable="0" parent="1">
          <mxGeometry x="30" y="-83" width="70" height="38" as="geometry" />
        </mxCell>
        <mxCell id="nBPd2E6_pD8OVz0HcGxl-2" value="" style="shape=cube;whiteSpace=wrap;html=1;boundedLbl=1;backgroundOutline=1;darkOpacity=0.05;darkOpacity2=0.1;size=20;fillColor=#CCE5FF;fontColor=#333333;strokeColor=none;gradientColor=none;shadow=1;" vertex="1" parent="nBPd2E6_pD8OVz0HcGxl-23">
          <mxGeometry y="3" width="70" height="35" as="geometry" />
        </mxCell>
        <mxCell id="nBPd2E6_pD8OVz0HcGxl-3" value="" style="shape=cylinder3;whiteSpace=wrap;html=1;boundedLbl=1;backgroundOutline=1;size=2.9;fillColor=default;fontColor=#333333;strokeColor=#000000;gradientColor=#CCCCCC;strokeWidth=0.05;" vertex="1" parent="nBPd2E6_pD8OVz0HcGxl-23">
          <mxGeometry x="5" width="10" height="10" as="geometry" />
        </mxCell>
        <mxCell id="nBPd2E6_pD8OVz0HcGxl-4" value="" style="shape=cylinder3;whiteSpace=wrap;html=1;boundedLbl=1;backgroundOutline=1;size=2.9;fillColor=default;fontColor=#333333;strokeColor=#000000;gradientColor=#CCCCCC;strokeWidth=0.05;" vertex="1" parent="nBPd2E6_pD8OVz0HcGxl-23">
          <mxGeometry x="17" width="10" height="10" as="geometry" />
        </mxCell>
        <mxCell id="nBPd2E6_pD8OVz0HcGxl-6" value="" style="shape=cylinder3;whiteSpace=wrap;html=1;boundedLbl=1;backgroundOutline=1;size=2.9;fillColor=#FFFFFF;fontColor=#333333;strokeColor=#000000;gradientColor=#FF8000;strokeWidth=0.05;" vertex="1" parent="nBPd2E6_pD8OVz0HcGxl-23">
          <mxGeometry x="12" y="6" width="10" height="10" as="geometry" />
        </mxCell>
        <mxCell id="nBPd2E6_pD8OVz0HcGxl-14" value="" style="shape=cylinder3;whiteSpace=wrap;html=1;boundedLbl=1;backgroundOutline=1;size=2.9;fillColor=default;fontColor=#333333;strokeColor=#000000;gradientColor=#CCCCCC;strokeWidth=0.05;" vertex="1" parent="nBPd2E6_pD8OVz0HcGxl-23">
          <mxGeometry x="29" width="10" height="10" as="geometry" />
        </mxCell>
        <mxCell id="nBPd2E6_pD8OVz0HcGxl-15" value="" style="shape=cylinder3;whiteSpace=wrap;html=1;boundedLbl=1;backgroundOutline=1;size=2.9;fillColor=default;fontColor=#333333;strokeColor=#000000;gradientColor=#CCCCCC;strokeWidth=0.05;" vertex="1" parent="nBPd2E6_pD8OVz0HcGxl-23">
          <mxGeometry x="41" width="10" height="10" as="geometry" />
        </mxCell>
        <mxCell id="nBPd2E6_pD8OVz0HcGxl-16" value="" style="shape=cylinder3;whiteSpace=wrap;html=1;boundedLbl=1;backgroundOutline=1;size=2.9;fillColor=default;fontColor=#333333;strokeColor=#000000;gradientColor=#CCCCCC;strokeWidth=0.05;" vertex="1" parent="nBPd2E6_pD8OVz0HcGxl-23">
          <mxGeometry x="48" y="6" width="10" height="10" as="geometry" />
        </mxCell>
        <mxCell id="nBPd2E6_pD8OVz0HcGxl-17" value="" style="shape=cylinder3;whiteSpace=wrap;html=1;boundedLbl=1;backgroundOutline=1;size=2.9;fillColor=default;fontColor=#333333;strokeColor=#000000;gradientColor=#CCCCCC;strokeWidth=0.05;" vertex="1" parent="nBPd2E6_pD8OVz0HcGxl-23">
          <mxGeometry x="36" y="6" width="10" height="10" as="geometry" />
        </mxCell>
        <mxCell id="nBPd2E6_pD8OVz0HcGxl-5" value="" style="shape=cylinder3;whiteSpace=wrap;html=1;boundedLbl=1;backgroundOutline=1;size=2.9;fillColor=default;fontColor=#333333;strokeColor=#000000;gradientColor=#CCCCCC;strokeWidth=0.05;" vertex="1" parent="nBPd2E6_pD8OVz0HcGxl-23">
          <mxGeometry x="24" y="6" width="10" height="10" as="geometry" />
        </mxCell>
        <mxCell id="nBPd2E6_pD8OVz0HcGxl-18" value="" style="shape=cylinder3;whiteSpace=wrap;html=1;boundedLbl=1;backgroundOutline=1;size=2.9;fillColor=#FFFFFF;fontColor=#333333;strokeColor=#000000;gradientColor=#FFE6CC;strokeWidth=0.05;" vertex="1" parent="nBPd2E6_pD8OVz0HcGxl-23">
          <mxGeometry x="19" y="12" width="10" height="10" as="geometry" />
        </mxCell>
        <mxCell id="nBPd2E6_pD8OVz0HcGxl-19" value="" style="shape=cylinder3;whiteSpace=wrap;html=1;boundedLbl=1;backgroundOutline=1;size=2.9;fillColor=#FFFFFF;fontColor=#333333;strokeColor=#000000;gradientColor=#FF9933;strokeWidth=0.05;" vertex="1" parent="nBPd2E6_pD8OVz0HcGxl-23">
          <mxGeometry x="55" y="12" width="10" height="10" as="geometry" />
        </mxCell>
        <mxCell id="nBPd2E6_pD8OVz0HcGxl-20" value="" style="shape=cylinder3;whiteSpace=wrap;html=1;boundedLbl=1;backgroundOutline=1;size=2.9;fillColor=#FFFFFF;fontColor=#333333;strokeColor=#000000;gradientColor=#FFB366;strokeWidth=0.05;" vertex="1" parent="nBPd2E6_pD8OVz0HcGxl-23">
          <mxGeometry x="43" y="12" width="10" height="10" as="geometry" />
        </mxCell>
        <mxCell id="nBPd2E6_pD8OVz0HcGxl-21" value="" style="shape=cylinder3;whiteSpace=wrap;html=1;boundedLbl=1;backgroundOutline=1;size=2.9;fillColor=#FFFFFF;fontColor=#333333;strokeColor=#000000;gradientColor=#FFCC99;strokeWidth=0.05;" vertex="1" parent="nBPd2E6_pD8OVz0HcGxl-23">
          <mxGeometry x="31" y="12" width="10" height="10" as="geometry" />
        </mxCell>
        <mxCell id="nBPd2E6_pD8OVz0HcGxl-24" value="" style="shape=cube;whiteSpace=wrap;html=1;boundedLbl=1;backgroundOutline=1;darkOpacity=0.05;darkOpacity2=0.1;size=17;gradientColor=none;strokeColor=none;fillColor=#CCCCCC;shadow=1;" vertex="1" parent="1">
          <mxGeometry x="109.22" y="-67" width="62.78" height="21" as="geometry" />
        </mxCell>
        <mxCell id="nBPd2E6_pD8OVz0HcGxl-25" value="" style="shape=cube;whiteSpace=wrap;html=1;boundedLbl=1;backgroundOutline=1;darkOpacity=0.05;darkOpacity2=0.1;size=10;strokeColor=none;fillColor=#FFB366;" vertex="1" parent="1">
          <mxGeometry x="119.22" y="-64.5" width="42.78" height="11" as="geometry" />
        </mxCell>
        <mxCell id="nBPd2E6_pD8OVz0HcGxl-26" value="" style="shape=cube;whiteSpace=wrap;html=1;boundedLbl=1;backgroundOutline=1;darkOpacity=0.05;darkOpacity2=0.1;size=14;fillColor=#999999;strokeColor=none;fillStyle=auto;shadow=0;" vertex="1" parent="1">
          <mxGeometry x="138.27" y="-74" width="21.73" height="22" as="geometry" />
        </mxCell>
        <mxCell id="nBPd2E6_pD8OVz0HcGxl-27" value="" style="shape=flexArrow;endArrow=classic;html=1;rounded=0;width=2.857142857142857;endSize=2.5228571428571427;endWidth=4.326530612244897;fillColor=#FFFFFF;strokeColor=none;gradientColor=#FF0000;gradientDirection=east;" edge="1" parent="1">
          <mxGeometry width="50" height="50" relative="1" as="geometry">
            <mxPoint x="131.27" y="-78.63" as="sourcePoint" />
            <mxPoint x="160.27" y="-78.63" as="targetPoint" />
          </mxGeometry>
        </mxCell>
      </root>
    </mxGraphModel>
  </diagram>
</mxfile>
